<svg xmlns="http://www.w3.org/2000/svg" xml:space="preserve" overflow="visible" viewBox="0 0 348.53 421.009">
  <switch>
    <g>
      <g id="Layer_1" fill-rule="evenodd" stroke="#000" stroke-linejoin="bevel" stroke-miterlimit="2.414" clip-rule="evenodd">
        <linearGradient id="XMLID_1_" x1="178.54" x2="178.54" y1="1124.5" y2="1025.9" gradientTransform="translate(84.579 -449.56)scale(.7509)" gradientUnits="userSpaceOnUse">
          <stop offset="0" style="stop-color:#e4b880"/>
          <stop offset="1" style="stop-color:#f4d797"/>
        </linearGradient>
        <path fill="url(#XMLID_1_)" stroke-width=".504" d="m199.06 323.42-1.011 2.104-.59 3.872.59 8.337 1.011 12.8.252 7.242-.672 2.357-1.686 1.768-3.62 1.433-1.516.926-.843.926.253 1.096 1.263 1.01 2.61 1.179h3.2v1.095l-.253 3.62-1.684 3.285-2.441 1.515-7.158 3.621-3.032 2.443-2.357 1.936-.841 2.694-.338 3.622-.337 1.095 1.853-1.433 2.357-.927 3.538-.252 1.854-1.179 3.282-1.853 2.609-2.022 1.853-2.02 2.105-2.357v3.788l1.434 3.201 1.514 1.515 3.201 1.179 4.546 1.265 4.127 1.095 2.694 1.347h4.127l1.43-1.601-.253-1.768-1.177-2.105-1.77-.926h3.199l2.695.336 3.368-.336 6.23.336 8.085.927 3.284.252 2.61 1.853 2.441.591 1.853-.927h.843l1.515.927 1.853.252.254-1.179-1.18-2.442-3.622-2.274-2.946-2.356-3.873-1.011-7.831-1.432-6.568-.505-13.726-.337-4.717-.674-3.282-1.515-2.357-2.021-.676-2.357 1.181-18.778.591-20.882 2.862-14.064-12.16 2.68z"/>
        <path fill="none" stroke-width=".504" d="m219.18 388.34-2.946-2.021-2.948-1.517"/>
        <linearGradient id="XMLID_2_" x1="221.99" x2="221.99" y1="1159.2" y2="1045.8" gradientTransform="translate(84.579 -449.56)scale(.7509)" gradientUnits="userSpaceOnUse">
          <stop offset="0" style="stop-color:#e4b880"/>
          <stop offset="1" style="stop-color:#f4d797"/>
        </linearGradient>
        <path fill="url(#XMLID_2_)" stroke-width=".504" d="m221.96 337.9 3.536 19.451 2.105 10.104v1.685l-1.012 1.601-1.515 1.6-2.02.758-.591 1.853 1.433 1.179h4.04l.506 1.01.759 7.747-.252 4.294-.507 1.264-2.947 1.096-3.789.336-3.705.843-1.853 1.601-1.096 2.104-1.348 1.348-.587 1.853 3.03-.757 1.853-.591h3.368l3.285-1.684h3.451l1.854.842 1.179 2.694 2.947 2.693 7.747 4.044 7.747 2.947 2.609 1.516 1.348 1.431 1.347 1.263 1.012 2.696.589 3.45.589.674.674-2.693.589-3.368.589-2.021.255-1.852v-2.442l-.844-1.6 5.053.505 10.525.843h5.053l2.696-.591 1.935-.505 1.517-.757 2.692.167 1.602.843v-.843l-1.854-2.357-1.934-1.852-1.854-.843-.758-.505-1.347-1.095-3.875-1.01-6.398-.338-8.001.759-7.157-.421 3.789-1.096h4.8l3.116-.591 1.6-.588 1.685 1.431.757.506h1.096l-.337-1.349-.506-1.599-1.347-1.852-1.348-1.011-.504-.59-1.518-1.853-2.188-.589-3.453.336-4.547 1.853-6.146 1.854-5.39.59-3.454.42-2.946-1.347-1.431-2.106-.673-4.714-2.443-19.621-1.6-17.263v-13.977l-11.3 2.21z"/>
        <path fill="none" stroke-width=".504" d="m256.23 398.87-6.904-1.096-7.242-2.695m15.666 11.281-2.021-1.686-2.947-1.516-5.896-2.188"/>
        <linearGradient id="XMLID_3_" x1="139.62" x2="139.62" y1="1052.5" y2="709.51" gradientTransform="translate(84.579 -449.56)scale(.7509)" gradientUnits="userSpaceOnUse">
          <stop offset="0" style="stop-color:#665c3a"/>
          <stop offset="1" style="stop-color:#252421"/>
        </linearGradient>
        <path fill="url(#XMLID_3_)" stroke-width=".504" d="m66.264 83.6-4.126 2.274-.421 9.094-8.083 5.978-1.433 6.232 1.011 7.41-7.832 34.777 6.4 10.61-3.115 9.092 3.115 8.591 2.695 6.399-1.601 5.135 2.105 9.853 5.389 10.021 12.715 9.009 13.136 8.084 9.6 8.167 1.347 17.768 4.126 12.8 11.704-7.409 7.663 9.176 6.736-2.694.59 5.306 5.389-3.115 1.348 8.25 4.631-5.136 3.031 7.326 6.821-5.895.504 8.673 7.242-5.473 7.747 15.998 4.463-5.136 3.2 10.946 9.767 5.389 14.147 6.484.925 5.559 1.77 10.693 5.475 3.705 6.313-1.853 4.97-5.978.42 12.377 5.473 6.484 8.084 2.105 9.179-2.612 3.958-10.103 8.252-11.369 12.294-13.641 7.577-18.609 9.602-3.116 16.757-12.716 13.641-13.725 10.021-16.251 8.082-17.263 4.38-24.841-.337-25.093-4.968-11.874-90.773 31.411-66.439 2.272-42.608-83.616-49.344-8.59-10.503-17.78-2.189.42z"/>
        <linearGradient id="XMLID_4_" x1="-2.58" x2="-2.58" y1="830.63" y2="675.08" gradientTransform="translate(84.579 -449.56)scale(.7509)" gradientUnits="userSpaceOnUse">
          <stop offset="0" style="stop-color:#5a5a80"/>
          <stop offset="1" style="stop-color:#606b57"/>
        </linearGradient>
        <path fill="url(#XMLID_4_)" stroke-width=".504" d="m165.04 154.92-5.641-17.852-13.81-31.323-10.19-14.57-11.452-12.631-10.946-9.347-11.704-6.989-14.821-3.62-16.251-1.264-19.458 2.863-12.631 5.304-13.389 10.19-11.452 12.208-4.799 8.506-5.726 13.808-2.527 11.369v19.199l1.263 12.462 4.884 10.695 5.305 6.568L17 173.78l2.442.336 1.179-.336.337-2.105-4.378-8.168-3.285-12.126-.758-13.894 2.021-12.21 3.285-11.368 3.536-4.968-1.095 8.927v16.335l3.199 15.913 6.99 10.611 6.82 8.673-.589-21.219-1.431-10.695-1.263-10.609 2.021-12.127 6.232-9.009 6.484-6.484 8.167-4.126 10.021-2.356h6.988l10.948 3.199 9.431 4.968 70.735 53.99z"/>
        <path fill="none" stroke-width=".504" d="m127.31 133.2-6.989-8.926-5.726-4.968-19.199-3.791-11.706 2.022-10.609 3.705-8.925 7.158-7.579 7.073-7.411 9.767-.758 5.221"/>
        <path fill="none" stroke-width=".504" d="m120.32 135.81-14.568-1.937-11.537.504-11.199 3.874-11.789 9.6-7.916 10.945-3.537 9.6-3.453 11.116"/>
        <linearGradient id="XMLID_5_" x1="-23.775" x2="-23.775" y1="709.51" y2="754.48" gradientTransform="translate(84.579 -449.56)scale(.7509)" gradientUnits="userSpaceOnUse">
          <stop offset="0" style="stop-color:#665c3a"/>
          <stop offset="1" style="stop-color:#252421"/>
        </linearGradient>
        <path fill="url(#XMLID_5_)" stroke-width=".504" d="M53.212 116.95v-4.801l-.758-8.167 1.938-4.211 3.873-3.285 1.179-4.968 1.937-5.39 4.209-2.946 4.21.42 2.863 4.968 3.537 7.411 3.874 5.979.926 8.76z"/>
        <linearGradient id="XMLID_6_" x1="11.776" x2="11.776" y1="958.48" y2="723.19" gradientTransform="translate(84.579 -449.56)scale(.7509)" gradientUnits="userSpaceOnUse">
          <stop offset="0" style="stop-color:#5a5a80"/>
          <stop offset="1" style="stop-color:#606b57"/>
        </linearGradient>
        <path fill="url(#XMLID_6_)" stroke-width=".504" d="m137.84 201.57-5.979 6.568-5.473 7.833-5.053 10.103-3.537 12.547-2.021 13.473-.421 13.473v4.042l-1.6.505-2.527-1.01-2.442-4.463-1.01-13.052.421-15.999 3.031-14.063 4.126-12.377 4.547-9.516 4.379-6.989-6.989 1.515-8.506 5.474-5.978 7.073-4.547 9.264-1.853 10.524-.589 10.526 1.01 10.611 1.432 5.473v4.967l-.926 1.012-1.937-2.527-3.537-11.958-2.526-16.587.926-16.925 3.621-11.957 3.873-6.99 5.558-6.484 7.915-6.063 7.495-3.032-4.378-1.43-8 1.009-10.947 5.979-7.495 9.514-3.621 9.517-2.526 13.472v12.377l1.011 9.6v4.546l-1.011 3.453-1.852-.927-3.622-9.093-2.021-16v-12.42l3.116-13.979 2.946-10.526 5.979-8.421 6.484-6.568 13.557-6.568 6.989-2.441 8-1.517-5.979-2.441-7.579-1.094-11.957 1.515-10.02 3.032-8 7.073-6.063 9.009-3.453 8.926-2.021 12.547-.505 12.461 1.094 11.452 1.011 8.928v2.524h-2.105l-3.452-4.461-4.127-10.526-1.853-13.894v-11.537l1.853-18.021 4.547-13.051 7.073-10.526 7.579-6.904 8.42-4.548 10.02-2.526 9.431-.927 10.526 1.433 9.094 2.525 5.474 1.517-2.526-4.967-2.948-7.074-6.567-5.979-10.105-3.958-10.862-2.021-11.031 1.433-13.979 4.041-11.03 7.915-9.516 12.043-5.978 15.072-1.601 12.547.505 18.02 2.527 12.378 1.516 6.147-.506 1.517-2.021.421-4.547-4.548-5.474-12.967-2.863-10.864-.842-13.808 2.442-17.937 6.736-16.925 11.115-14.484 7.496-7.157 13.977-7.411L86.3 95.597l12.546-2.105h10.947l12.547 3.03 9.515 5.475 8 8.083 5.053 5.473 4.968 13.558 4.463 12.968-16.5 59.54z"/>
        <path fill="none" stroke-width=".504" d="m20.961 109.79 4.126-6.568L35.95 91.434l13.304-7.832 9.768-4.968 10.44-2.272h10.442l4.799.167"/>
        <linearGradient id="XMLID_7_" x1="160.59" x2="160.59" y1="973.39" y2="812.35" gradientTransform="translate(84.579 -449.56)scale(.7509)" gradientUnits="userSpaceOnUse">
          <stop offset="0" style="stop-color:#597877"/>
          <stop offset="1" style="stop-color:#be8f57"/>
        </linearGradient>
        <path fill="url(#XMLID_7_)" stroke-width=".504" d="m221.79 160.4-2.021 4.295-4.799 4.63-5.052 3.874-5.137 2.947-6.737 1.264-6.735.843h-7.243l-6.821-1.769-2.525-.758-31.829 10.946-18.947 20.042-3.03 4.125 3.03-2.946 4.968-2.863-3.368 4.21-2.021 6.989-.927 9.429.927 12.716 2.442 10.609 1.684 5.979 3.874-8.168 4.716-4.969 1.262 10.947 2.105 6.821 4.716 8.084.421-10.188 2.106-7.244 1.263-3.452 1.683 6.399 3.369 7.242 3.452-8.084 3.789-6.398-1.263 10.693.506 8.506 1.599 7.578 4.211-3.452 3.032-4.548v6.737l.42 7.663.338 2.189 3.536-3.875 1.517-2.946h3.368l5.979-1.769 9.769-4.632 14.313-4.63 20.042-5.558 13.136-3.453 13.978-3.873 6.822-3.367 6.82-3.791 6.314-6.821 6.905-9.347 4.713-10.104 2.107-7.915.842-6.401-6.147-25.43-61.48-17.03z"/>
        <path fill="none" stroke-width=".504" d="m160.91 227-.757 4.464v11.788l1.432 5.811 3.706 4.294.336-8.673 3.116-8.673m6.737 19.369-.422 4.632 1.517 5.137 2.357 2.61.085-5.304 3.704-10.695 6.821-11.789 6.567-6.399M132.62 217.91l-.673 6.063.673 6.062 2.106 4.632 1.599 1.601-.083-4.884 1.262-5.054 2.358-3.704m8.168 11.194-.169 6.991.841 7.829m.248-41.43-1.937 4.211-.758 6.651 1.179 7.411 2.021 3.116.758-5.052 3.2-4.379 2.358-2.779M120.49 194.16l-7.41 4.716-7.663 9.515-4.126 8.673-2.442 11.283.842 11.537"/>
        <linearGradient id="XMLID_8_" x1="78.054" x2="78.054" y1="889.73" y2="774.44" gradientTransform="translate(84.579 -449.56)scale(.7509)" gradientUnits="userSpaceOnUse">
          <stop offset="0" style="stop-color:#f2f2f2"/>
          <stop offset="1" style="stop-color:#fee6a7"/>
        </linearGradient>
        <path fill="url(#XMLID_8_)" stroke-width=".504" d="m177.33 176.82-3.621-2.694-2.947-5.809-5.558-14.82-3.032-6.822-4.8-5.473-7.578-5.81-9.6-3.032-8.841-.422-9.6 1.686-9.009 3.789-3.032 2.105 6.232-.338h6.063l7.242 1.348 6.484 2.021 2.442 1.768-10.189 1.684-6.231 2.021-6.82 5.811-3.452 5.22-2.442 7.158v1.682l5.558-4.799 4.799-3.369 4.715-1.768h5.473l3.79 1.433-9.263 4.377-6.146 5.222-3.368 6.147-1.095 6.483.673 6.821 1.432 2.779 2.358-4.126 3.789-3.789 3.115-2.694-3.789 7.831-1.01 7.578-.673 10.189-.421 6.146 3.874-5.726 4.379-8.589 4.715-4.715 1.769-1.431-4.126 6.821-1.346 5.558 3.115-3.116 4.126-1.433v9.262l.253 5.053 1.431 4.463 1.768-6.483 5.138-11.621 3.705-6.484 5.726-5.726 6.569-5.811 4.548-1.767 5.81-2.105 6.904-1.347v-.35z"/>
        <path fill="none" stroke-width=".504" d="m133.38 159.72 5.221-1.094h7.157l5.306 1.094m-12.884-15.16 5.221 1.096 5.472 2.02 4.968 2.779M124.87 180.94l4.379-3.368 6.484-3.201 6.568-1.262m-8.591 18.781 5.22-5.558 6.484-3.37"/>
        <linearGradient id="XMLID_9_" x1="266.46" x2="266.46" y1="876.39" y2="661.06" gradientTransform="translate(84.579 -449.56)scale(.7509)" gradientUnits="userSpaceOnUse">
          <stop offset="0" style="stop-color:#f2f2f2"/>
          <stop offset="1" style="stop-color:#fee6a7"/>
        </linearGradient>
        <path fill="url(#XMLID_9_)" stroke-width=".504" d="m298.42 49.833-11.704 4.801-7.494 4.379-6.906 4.379-7.408 5.22-7.073 6.652-4.799 6.989-6.063 10.862-5.726 15.747-5.223 17.094-6.567 17.937-7.074 14.82-1.43 3.368.59 6.232v6.988l6.987-6.063 2.273-2.61v5.137l2.104 6.23 2.695 4.379h1.263l1.769-4.884 1.771-3.116 1.766 8.842.929 6.146 4.208-7.916.506 6.063 2.527 9.683 2.271-9.093 1.265-4.042 3.031 10.524 4.041 6.569 5.728 6.483-1.769-9.6v-6.567l4.21 7.914 6.232 6.148 4.799 2.948-1.685-7.326v-5.222l.758-1.769 6.146 9.515 5.643 4.801-.758-4.801-1.263-7.747 4.21 2.61 3.03 2.105-.842-4.294.842-10.021 4.886 6.484 3.45 4.041V190.2l.927-3.874 6.568 5.137 2.526 1.852-2.526-8.84-2.272-10.442-.338-1.769 5.558 6.906 2.694 2.272-.421-7.409v-4.801l3.958 3.958 2.273 1.179-1.432-5.642v-7.411l3.454 6.991 3.115 4.882v-6.146l-.423-4.884 2.611 6.148 2.61 3.115-.841-5.728-2.611-7.494-4.462-9.093-4.717-10.947-1.347-4.799-.843-6.568.085-7.158.758-43.534 2.188-3.453h3.875l7.914 1.179 6.567 1.01 4.379.843 1.264 1.768 1.769.421h.504l.422-.421-.422-1.768-1.769-4.8-1.348-3.537-1.262-1.348-2.272-2.189-2.695-2.19-2.526-1.346-23.915-13.474-13.72 3.042z"/>
        <linearGradient id="XMLID_10_" x1="284.52" x2="284.52" y1="759.08" y2="598.49" gradientTransform="translate(84.579 -449.56)scale(.7509)" gradientUnits="userSpaceOnUse">
          <stop offset="0" style="stop-color:#f29464"/>
          <stop offset="1" style="stop-color:#e42b17"/>
        </linearGradient>
        <path fill="url(#XMLID_10_)" stroke-width=".504" d="m259.85 12.532-1.938 3.03-1.937 5.727v4.799l1.6 6.485 3.285 5.22 4.546 4.884 6.737 4.125 10.526 2.696 7.916.336h12.041l4.462-.336-2.273 1.852-5.221 4.125-4.465 4.127-2.692 5.22-1.18 5.644v4.882l1.517 5.221 2.355 3.032 2.191.759h2.609l3.706-.759 3.031-1.515-1.853 7.916v5.64l1.853 7.494 3.368 7.074 3.03 4.969 3.368 2.948 3.369 2.273h2.273l1.854-.758 2.272-1.179 1.853-2.189 1.938-4.465.337-10.103-1.432-9.516-1.938-6.736-2.273-4.547-2.273-3.368-1.095-2.191-.336-2.273V71.14l1.431-2.19 2.273-1.096 3.79-2.357 2.693-1.768 2.609-1.853 1.854-1.936 1.938-2.191 1.852-4.125.673-4.884-.673-5.306-.421-5.306v-1.515l1.432-3.032v-6.316l-1.011-3.368-1.517-2.272-.757.419v1.853l-.76 2.188-2.61 2.694-2.609 1.519-1.178-.674v-2.688l.337-5.304-.76-4.548-1.515-3.369-.673-1.852-1.938-.757h-.758l-.337 1.179.757 2.609.338 2.948-.758 3.453-1.095 2.61-1.179.336-1.431-.756v-9.347l-1.18-4.548-1.094-2.189-1.853-1.516-1.517-.842-1.093.842.335 2.274.254 2.948v3.451l-1.013 2.526-1.515 2.61-1.432.419-1.18-.419-.756-2.188-1.854-4.127-1.179-3.789-3.031-4.547-2.948-3.705-2.947-1.096-1.6-.421h-1.431l-.421 1.517 1.852 1.095 2.358 3.452 1.093 4.884-1.093 5.642-.759 1.853-1.178.422-1.433-1.179-2.694-2.948-2.526-3.451-3.114-2.191-2.948-1.515-3.031-1.516-3.369-.842-5.727-.252-1.43.252-.421 1.599 2.274 1.095 4.124 2.274 1.854 2.274 1.6 2.946.253 3.453v7.409l-.59 1.179h-2.358l-5.306-1.179-3.704-2.609-3.704-2.947-1.937-1.853-1.096-2.695v-1.851l-.66-1.601z"/>
        <linearGradient id="XMLID_11_" x1="301.39" x2="301.39" y1="682.48" y2="672.05" gradientTransform="translate(84.579 -449.56)scale(.7509)" gradientUnits="userSpaceOnUse">
          <stop offset="0" style="stop-color:#000"/>
          <stop offset="1" style="stop-color:#000"/>
        </linearGradient>
        <path fill="url(#XMLID_11_)" stroke-width=".432" d="M314.25 59.013c0 2.02-1.518 3.873-3.37 3.873s-3.369-1.853-3.369-3.873c0-2.19 1.517-3.958 3.369-3.958s3.37 1.768 3.37 3.958z"/>
        <path fill="none" stroke-width=".504" d="m325.79 63.055-1.348-1.6-.843-3.115-.252-3.538-1.264-3.199-.673-.843-2.779-1.853-3.201-.672-5.051-.422-5.895.422-5.644 1.515"/>
        <path fill="none" stroke-width=".504" d="m335.55 60.023-3.955 1.01-3.875 1.095-3.874 1.6-3.285 3.62-2.945 2.61-3.115 3.2-1.348 2.105-1.18 2.863-2.106-5.137-1.262-2.105-1.854 2.358-1.01-4.211-1.684-2.357-1.431 3.031-1.011-4.379-.843-2.02-3.114 2.862-.254-4.715-2.021-1.263"/>
        <path fill="none" stroke-width=".504" d="m303.81 55.055.59 4.125 2.611 4.212 3.369 1.515 4.464-.674 2.021-.674"/>
        <linearGradient id="XMLID_12_" x1="303.86" x2="303.86" y1="678.67" y2="675.98" gradientTransform="translate(84.579 -449.56)scale(.7509)" gradientUnits="userSpaceOnUse">
          <stop offset="0" style="stop-color:#fff"/>
          <stop offset="1" style="stop-color:#fff"/>
        </linearGradient>
        <path fill="url(#XMLID_12_)" stroke-width=".432" d="M313.74 59.013c0 .505-.422 1.01-1.011 1.01-.59 0-1.011-.505-1.011-1.01 0-.421.421-1.011 1.011-1.011s1.01.59 1.01 1.011z"/>
        <path fill="none" stroke-width=".504" d="m303.89 55.055 2.61-.843 3.285-.674h2.525l2.527.927 2.692 1.852 2.021 2.527 1.264 1.853.169 1.179m.427 8.251 5.22-.757h5.222l5.389 1.431 3.62 1.601 3.285 3.284"/>
      </g>
    </g>
  </switch>
</svg>
