<svg xmlns="http://www.w3.org/2000/svg" xml:space="preserve" id="图层_1" width="209.612" height="246.39" style="overflow:visible" viewBox="0 0 209.612 246.39">
  <path d="M174.458 123.714c3.27 7.243-1.144 10.699-5.87 9.133-2.766-.915-4.509-7.49-7.878-5.586-13.284 7.508-22.862 4.606-27.8 1.233-12.176-8.314-16.069-12.192-18.034-16.131-4.349-8.708 12.555-25.061 15.225-13.403 10.658 46.524 35.828 5.862 44.357 24.754" style="fill:#61ba99"/>
  <path d="M172.545 221.307c-4.919 8.648-15.805 6.94-32.999 3.612-17.192-3.329-31.057-6.412-29.265-15.666 1.791-9.253 16.82-10.786 34.374-10.729 21.661.074 35.317 9.725 27.89 22.783" style="fill:#5cb091"/>
  <path d="M171.396 216.945c-2.219 1.157-5.557-.408-7.458-3.499-1.898-3.09-1.642-6.538.575-7.696 2.218-1.16 5.558.406 7.457 3.498 1.901 3.091 1.644 6.536-.574 7.697" style="fill:#f0e2b6"/>
  <path d="M169.36 213.069c-1.377.719-3.449-.253-4.629-2.172-1.179-1.918-1.02-4.059.356-4.777 1.377-.721 3.45.252 4.629 2.171 1.18 1.919 1.021 4.058-.356 4.778" style="fill:#fff7e0"/>
  <g style="opacity:.65">
    <path d="m171.97 209.248-.023-.035c.768 2.447.254 4.765-1.485 5.675-2.209 1.152-5.527-.396-7.433-3.461.211.673.5 1.354.909 2.02 1.901 3.091 5.239 4.656 7.458 3.499 2.218-1.162 2.475-4.607.574-7.698" style="fill:#cfbe8b"/>
  </g>
  <path d="M170.284 224.715c-4.767 7.727-14.667 5.863-30.277 2.343-15.614-3.52-28.192-6.724-26.266-15.091 1.927-8.365 15.714-9.331 31.762-8.775 19.797.684 31.978 9.855 24.781 21.523" style="fill:#5cb091"/>
  <ellipse cx="150.612" cy="216.297" rx="18.707" ry="12.547" style="fill:#67c6a3"/>
  <path d="M161.799 214.223s.566 7.262 5.455 8.707c4.889 1.443 4.095-5.425 3.205-7.337-.889-1.914-8.66-1.37-8.66-1.37" style="fill:#5cb091"/>
  <path d="M169.37 220.714c-2.065.992-5.065-.53-6.708-3.397-1.638-2.864-1.298-5.993.767-6.983 2.064-.991 5.065.529 6.707 3.396s1.297 5.992-.766 6.984" style="fill:#f0e2b6"/>
  <path d="M165.484 202.581s-11.446 14.8-42.78 18.133l1.242-4.538z" style="fill:#5cb091"/>
  <path d="M84.229 206.328c8.59 7.514 20.817 11.896 31.103 10.933 23.829-2.234 54.403-5.356 60.096-33.564 4.262-21.121-2.833-47.185-23.689-65.252h.002l-.032-.024-.092-.072c-1.581-1.245-19.247-15.441-6.72-18.148l-35.309-19.643s12.384 16.041-8.552 38.961c0 0-72.993 70.235-87.734 85.144-26.701 27-11.978 47.556 33.2 37.795 0 0 10.091-2.644 8.943-7.959-1.148-5.313-26.088 9.051-32.571-2.697-4.571-8.283 17.055-16.902 26.422-21.472-.001-.001 26.538-12.395 34.933-4.002" style="fill:#67c6a3"/>
  <path d="M152.738 118.115h.002l-.032-.024-.092-.072c-1.581-1.245-19.247-15.441-6.72-18.148l-6.865-3.819c-14.161-5.337-29.072 40.044-29.072 68.872 0 19.386 5.241 37.191 13.987 51.253 22.303-2.401 47.381-7.532 52.481-32.81 4.262-21.121-2.833-47.185-23.689-65.252" style="fill:#fff0c2"/>
  <g style="opacity:.12">
    <path d="M154.223 120.761a45 45 0 0 0-1.211-2.4c-.093-.081-.181-.165-.274-.246h.002l-.032-.023-.092-.072c-1.126-.887-10.4-8.339-11.128-13.535a52 52 0 0 0-10.263-6.625c-1.669 1.33-3.309 3.204-4.89 5.521 11.32 2.809 21.083 9.036 27.888 17.38m9.346 8.998c7.577 14.407 9.643 30.312 6.858 44.107-5.036 24.956-29.543 30.272-51.628 32.715a87 87 0 0 0 5.146 9.595c22.303-2.401 47.381-7.532 52.481-32.81 3.414-16.915-.466-36.998-12.857-53.607M145.896 99.87l-6.865-3.819a6.5 6.5 0 0 0-3.39-.336c.726 2.638 3.31 5.714 5.806 8.203-.027-1.842 1.173-3.34 4.449-4.048" style="fill:#c9853c"/>
  </g>
  <path d="M93.049 199.304a20.2 20.2 0 0 0-6.114-4.194c.367-5.886-1.606-14.953-9.868-28.573 0 0-5.052 13.832-1.619 26.531-8.41.224-19.412 3.465-33.745 11.313-28 15.333-19.359 26.006-19.359 26.006l.006-.001c-1.62-7.835 18.11-15.747 26.945-20.057 0 0 26.539-12.395 34.934-4.001 8.59 7.514 20.816 11.896 31.103 10.933 2.867-.269 5.833-.552 8.84-.889-19.991 1.618-23.661-9.606-31.123-17.068" style="opacity:.2;fill:#346352"/>
  <path d="M152.738 118.114h.002l-.032-.023-.092-.072c-1.581-1.246-19.247-15.441-6.72-18.148l-6.865-3.819c-4.31-1.624-8.688 1.455-12.695 7.329 21.917 5.442 38.034 23.671 38.034 45.334 0 25.378-22.115 46.047-49.77 46.956 2.342 7.435 5.506 14.332 9.346 20.506 22.303-2.401 47.381-7.532 52.481-32.81 4.262-21.121-2.833-47.185-23.689-65.253" style="opacity:.12;fill:#c9853c"/>
  <path d="M81.506 157.021s-16.939 21.933 8.065 45.762c0 0 13.061 10.944 13.061 27.418l24.288-7.46s7.796-19.174 2.734-42.32c-6.132-28.054-30.775-49.35-48.148-23.4" style="fill:#67c6a3"/>
  <path d="M150.914 139.336c0 15.003-13.725 35.907-16.751 27.165-5.293-15.287-17.625-17.304-14.483-31.974 3.213-15.003 5.232-22.356 14.483-22.356s16.751 12.162 16.751 27.165" style="fill:#fffae8"/>
  <path d="M148.141 214.351s13.664 3.616 17.903 14.329l-33.934-2.701c.001 0 3.474-10.063 16.031-11.628" style="fill:#5cb091"/>
  <path d="M165.021 240.063c-4.919 8.648-15.805 6.94-32.999 3.612-17.192-3.329-31.057-6.412-29.265-15.666 1.791-9.253 16.82-10.786 34.374-10.729 21.661.074 35.317 9.726 27.89 22.783" style="fill:#5cb091"/>
  <path d="M116.935 124.065s21.044 28.031 48.364 7.465l-1.93-3.566s-40.5 2.25-44.25-10.75z" style="opacity:.09;fill:#5a3d1c"/>
  <path d="M159.114 232.994c-3.581 7.296-13.521 6.675-29.279 5.189-15.76-1.486-28.507-3.005-27.794-10.57.713-7.563 14.06-9.836 29.828-11.004 19.454-1.441 32.65 5.373 27.245 16.385" style="fill:#67c6a3"/>
  <path d="M155.162 228.501s.631 8.894 6.076 10.662c5.446 1.771 4.562-6.642 3.57-8.984-.99-2.345-9.646-1.678-9.646-1.678" style="fill:#5cb091"/>
  <path d="M163.872 235.702c-2.219 1.157-5.557-.408-7.458-3.499-1.898-3.09-1.642-6.538.575-7.696 2.218-1.16 5.558.406 7.457 3.498s1.643 6.536-.574 7.697" style="fill:#f0e2b6"/>
  <path d="M175.458 126.926c3.27 7.243-1.144 10.699-5.87 9.133-2.766-.915-4.509-7.49-7.878-5.586-13.284 7.508-22.862 4.606-27.8 1.233-12.176-8.314-16.069-12.192-18.034-16.131-4.349-8.708 12.555-25.061 15.225-13.403 10.658 46.524 35.828 5.862 44.357 24.754" style="fill:#67c6a3"/>
  <path d="M123.524 185.197c0 17.96-1.139 29.971-11.815 29.971s-19.652-16.349-27.601-32.454c-4.429-8.974 9.41-30.037 20.085-30.037 10.677 0 19.331 14.559 19.331 32.52" style="fill:#6cd1ac"/>
  <path d="M118.127 179.881c0 12.32-.734 20.559-7.609 20.559s-12.656-11.214-17.774-22.262c-2.853-6.155 6.06-20.604 12.934-20.604 6.875 0 12.449 9.988 12.449 22.307" style="fill:#74e0b9"/>
  <path d="m122.564 87.776-12.977-7.219s12.384 16.042-8.552 38.961c0 0-72.992 70.235-87.734 85.144-13.29 13.44-16.315 25.28-10.431 32.583.874.22 1.812.382 2.834.469 0 0-19.334-11.333 28-43.333 43.033-29.093 83.652-62.913 88.86-106.605" style="fill:#6cd1ac"/>
  <path d="M131.1 102.172c-1.622-5.91-3.726-8.421-5.873-8.755l-3.239 4.182s7.882 46.365 39.382 27.865l-1.834-2.074c-9.678 3.045-20.926 6.152-28.436-21.218" style="fill:#6fd6b0"/>
  <path d="M111.671 84.585s12.517 22.168 32.107 24.648c0 0-6.358-6.499 3.349-9.777z" style="opacity:.2"/>
  <path d="M147.127 99.457c32.303-5.604 58.578-6.743 61.125-33.907 2.402-25.625-15.422-37.852-35.673-38.356 0-22.507-28.279-31.215-47.685-25.479-20.981 6.203-32.892 31.3-26.605 52.564.001-.001 10.009 51.914 48.838 45.178" style="fill:#67c6a3"/>
  <path d="M184.323 28.933c26.964 7.198 33.547 53.781-19.345 56.865-13.6.793-26.507-1.617-34.472-5.584-19.637-8.742-3.545-19.843-7.12-23.983-34.517-8.017-13.055-41.729-13.055-41.729-2.647 2.647-5.132 3.875-7.395 4.973-6.045 10.237-8.108 23.098-4.647 34.804 0 0 10.009 51.915 48.838 45.178 32.303-5.604 58.578-6.743 61.125-33.907 1.921-20.487-9.09-32.401-23.929-36.617m-11.803-3.251c-.107.029-.217.046-.324.078 0 0 .115-.007.326-.014z" style="fill:#5eb393"/>
  <path d="M197.219 55.59c0 14.196-16.633 22.108-33.103 22.108-16.469 0-56.009-14.58-24.285-20.17 20.843-3.673 25.105-24.798 29.82-25.706 16.174-3.112 27.568 9.572 27.568 23.768m-37.002-40.76c7.247 12.979-7.37 15.161-22.261 23.475s-24.417 19.614-31.664 6.635c-7.248-12.979-1.051-30.242 13.84-38.556 14.892-8.316 32.838-4.534 40.085 8.446" style="fill:#74e0b9"/>
  <path d="M117.832 42.489c3.628 10.842 13.426 12.947 24.708 8.974 11.284-3.972 19.779-12.512 16.15-23.354s-15.717-16.412-27-12.441c-11.285 3.974-17.49 15.983-13.858 26.821" style="fill:#fff"/>
  <path d="M138.926 37.906c1.822 4.189 6.857 6.012 11.235 4.065 4.383-1.942 6.454-6.923 4.628-11.121-1.819-4.192-6.855-6.016-11.239-4.066-4.381 1.95-6.457 6.919-4.624 11.122"/>
  <path d="M172.196 25.76c-10.561 2.689-8.016 13.61-11.05 17.376 4.028-3.913 6.034-14.649 20.451-14.055a64 64 0 0 0-9.401-3.321" style="fill:#67c6a3"/>
  <path d="M193.149 48.234c1.444 8.025-4.97 15.896-14.327 17.579-9.355 1.683-33.54-4.207-19.555-11.485 10.839-5.641 11.741-16.586 14.327-17.58 8.872-3.412 18.113 3.46 19.555 11.486" style="fill:#97edce"/>
  <path d="M209.495 48.053c.854 4.94-3.079 6.791-8.172 7.67-5.095.88-9.42.455-10.274-4.485s1.929-13.481 7.021-14.36c5.095-.879 10.572 6.235 11.425 11.175"/>
  <path d="M8.07 216.445a61 61 0 0 1 2.359-2.987s-1.078 1.157-2.359 2.987m47.374 18.052c-.193-.894-1.071-1.223-2.409-1.221.008 1.202 2.954 10.099-30.332 6.438-25.796-2.839-19.018-17.006-14.633-23.269-9.97 13.5-6.095 21.687 2.848 26.209 7.884 2.923 19.896 3.191 35.583-.198 0 0 10.091-2.643 8.943-7.959" style="fill:#5eb393"/>
  <circle cx="149.695" cy="31.539" r="2.841" style="fill:#fff"/>
  <path d="M206.458 44.477c.516 2.976-2.32 4.171-5.963 4.8s-6.715.453-7.23-2.522c-.513-2.976 1.629-8.201 5.271-8.83 3.644-.629 7.409 3.576 7.922 6.552" style="opacity:.57;fill:#b2b2b2"/>
  <path d="M158.69 28.109c-1.199-3.583-3.336-6.575-6.05-8.853a15.85 15.85 0 0 1 3.274 5.798c2.724 8.642-3.651 15.45-12.118 18.616-8.465 3.167-15.816 1.489-18.538-7.153-2.726-8.639 1.931-18.212 10.397-21.38a16 16 0 0 1 2.649-.725c-2.19.081-4.417.482-6.615 1.255-11.285 3.974-17.49 15.983-13.858 26.821 3.628 10.842 13.426 12.947 24.708 8.974 11.285-3.97 19.78-12.511 16.151-23.353" style="fill:#f2f2f2"/>
  <path d="M131.029 8.365c.826 1.235-3.081 2.89-7.354 5.748-4.275 2.859-7.299 5.837-8.124 4.602s.858-6.215 5.134-9.074c4.273-2.858 9.519-2.512 10.344-1.276"/>
  <path d="M174.621 125.387c1.412 2.479.905 5.278-1.132 6.253-2.037.974-6.246.164-6.246-2.724 0-4.952-4.173-4.1-5.873-3.452-5.25 2-6.414.052-5.083-.781 1.169-.73 7.327-3.124 12.088-3.124 2.296 0 4.833 1.349 6.246 3.828M152.87 228.088c0 4.212-9.787 5.626-21.861 5.626s-21.86-1.414-21.86-5.626 9.787-7.626 21.86-7.626c12.074 0 21.861 3.414 21.861 7.626" style="fill:#6fd6b0"/>
  <path d="M161.956 231.795c-1.377.719-3.449-.253-4.629-2.172-1.179-1.918-1.02-4.059.356-4.777 1.377-.721 3.45.252 4.629 2.171 1.18 1.919 1.021 4.057-.356 4.778m5.805-14.729c-1.224.639-3.064-.225-4.112-1.929-1.047-1.704-.905-3.605.316-4.244 1.224-.641 3.065.224 4.112 1.929 1.048 1.704.908 3.605-.316 4.244" style="fill:#fff7e0"/>
  <path d="M164.446 228.005a9.5 9.5 0 0 0-1.375-1.739c.192.242.382.49.549.762 1.611 2.612 1.33 5.563-.63 6.595-1.961 1.026-4.857-.258-6.471-2.87-1.134-1.841-1.311-3.837-.642-5.224-1.098 1.582-.965 4.231.536 6.675 1.901 3.091 5.239 4.656 7.458 3.499 2.218-1.162 2.475-4.607.575-7.698" style="opacity:.65;fill:#cfbe8b"/>
  <g style="opacity:.65">
    <path d="M170.135 213.729a9 9 0 0 0-.465-.719c.986 2.52.496 5.002-1.301 5.866-1.884.905-4.541-.286-6.241-2.677q.218.561.533 1.117c1.643 2.867 4.643 4.39 6.708 3.397 2.064-.991 2.408-4.118.766-6.984" style="fill:#cfbe8b"/>
  </g>
  <path d="M202.793 42.825c.25 1.704-.95 2.28-2.503 2.508s-2.868.021-3.119-1.682c-.25-1.703.805-3.269 2.357-3.497s3.014.968 3.265 2.671" style="opacity:.46;fill:#fff"/>
  <path d="M113.393 173.075c0 5.846-.349 9.754-3.61 9.754s-6.005-5.32-8.432-10.562c-1.354-2.92 2.874-9.774 6.136-9.774s5.906 4.738 5.906 10.582" style="opacity:.6;fill:#a1f7d8"/>
</svg>
