<svg xmlns="http://www.w3.org/2000/svg" xmlns:xlink="http://www.w3.org/1999/xlink" id="svg2913" viewBox="0 0 48 48">
  <defs id="defs3">
    <linearGradient id="linearGradient5060">
      <stop id="stop5062" offset="0" style="stop-color:black"/>
      <stop id="stop5064" offset="1" style="stop-color:black;stop-opacity:0"/>
    </linearGradient>
    <linearGradient id="linearGradient5027" x1="302.86" x2="302.86" y1="366.65" y2="609.51" gradientTransform="matrix(2.7744 0 0 1.9697 -1892.2 -872.89)" gradientUnits="userSpaceOnUse">
      <stop id="stop5050" offset="0" style="stop-color:black;stop-opacity:0"/>
      <stop id="stop5056" offset=".5" style="stop-color:black"/>
      <stop id="stop5052" offset="1" style="stop-color:black;stop-opacity:0"/>
    </linearGradient>
    <linearGradient id="linearGradient1764" x1="33.06" x2="12.624" y1="27.394" y2="12.584" gradientTransform="translate(-3.869 -2.707)scale(.91411)" gradientUnits="userSpaceOnUse">
      <stop id="stop2189" offset="0" style="stop-color:#fff"/>
      <stop id="stop2191" offset="1" style="stop-color:#fff;stop-opacity:0"/>
    </linearGradient>
    <linearGradient id="linearGradient4209" x1="7.063" x2="24.688" y1="35.281" y2="35.281" gradientTransform="translate(.795 3.8)" gradientUnits="userSpaceOnUse">
      <stop id="stop4186" offset="0" style="stop-color:#838383"/>
      <stop id="stop4188" offset="1" style="stop-color:#bbb;stop-opacity:0"/>
    </linearGradient>
    <linearGradient id="linearGradient4234" x1="7.605" x2="36.183" y1="28.481" y2="40.944" gradientTransform="translate(0 5.125)" gradientUnits="userSpaceOnUse">
      <stop id="stop4230" offset="0" style="stop-color:#bbb"/>
      <stop id="stop4232" offset="1" style="stop-color:#9f9f9f"/>
    </linearGradient>
    <linearGradient id="linearGradient4242" x1="12.277" x2="12.222" y1="37.206" y2="33.759" gradientTransform="translate(0 5.125)" gradientUnits="userSpaceOnUse">
      <stop id="stop4238" offset="0" style="stop-color:#eee"/>
      <stop id="stop4240" offset="1" style="stop-color:#eee;stop-opacity:0"/>
    </linearGradient>
    <linearGradient id="linearGradient4260" x1="12.378" x2="44.096" y1="4.433" y2="47.621" gradientTransform="translate(0 5.125)" gradientUnits="userSpaceOnUse">
      <stop id="stop4256" offset="0" style="stop-color:#fff"/>
      <stop id="stop4258" offset="1" style="stop-color:#fff;stop-opacity:0"/>
    </linearGradient>
    <linearGradient id="linearGradient4272" x1="23.688" x2="23.688" y1="11.319" y2="26.357" gradientTransform="translate(0 5.125)" gradientUnits="userSpaceOnUse">
      <stop id="stop4276" offset="0" style="stop-color:#fff;stop-opacity:.2549"/>
      <stop id="stop4278" offset="1" style="stop-color:#fff"/>
    </linearGradient>
    <linearGradient id="linearGradient2553" x1="33.431" x2="21.748" y1="31.965" y2="11.781" gradientUnits="userSpaceOnUse">
      <stop id="stop2557" offset="0" style="stop-color:#fff"/>
      <stop id="stop2561" offset=".5" style="stop-color:#e6e6e6"/>
      <stop id="stop2563" offset=".75" style="stop-color:#fff"/>
      <stop id="stop2565" offset=".842" style="stop-color:#e1e1e1"/>
      <stop id="stop2559" offset="1" style="stop-color:#fff"/>
    </linearGradient>
    <linearGradient id="linearGradient6907" x1="14.752" x2="8.895" y1="15.868" y2="16.743" gradientUnits="userSpaceOnUse">
      <stop id="stop6903" offset="0" style="stop-color:#3465a4"/>
      <stop id="stop6905" offset="1" style="stop-color:#3465a4;stop-opacity:0"/>
    </linearGradient>
    <linearGradient id="linearGradient6931" x1="12.25" x2="7" y1="18.25" y2="21.118" gradientUnits="userSpaceOnUse">
      <stop id="stop6927" offset="0" style="stop-color:#204a87"/>
      <stop id="stop6929" offset="1" style="stop-color:#204a87;stop-opacity:0"/>
    </linearGradient>
    <radialGradient xlink:href="#linearGradient5060" id="radialGradient5031" cx="605.71" cy="486.65" r="117.14" gradientTransform="matrix(-2.7744 0 0 1.9697 112.76 -872.89)" gradientUnits="userSpaceOnUse"/>
    <radialGradient xlink:href="#linearGradient5060" id="radialGradient5029" cx="605.71" cy="486.65" r="117.14" gradientTransform="matrix(2.7744 0 0 1.9697 -1891.6 -872.89)" gradientUnits="userSpaceOnUse"/>
    <radialGradient id="radialGradient4997" cx="23.447" cy="6.458" r="19.062" gradientTransform="rotate(.439 664.43 6034.828)scale(-1.31454 1.33624)" gradientUnits="userSpaceOnUse">
      <stop id="stop4993" offset="0" style="stop-color:#fff"/>
      <stop id="stop4995" offset="1" style="stop-color:#fff;stop-opacity:0"/>
    </radialGradient>
    <radialGradient id="radialGradient8668" cx="24.837" cy="36.421" r="15.645" gradientTransform="matrix(1 0 0 .53672 0 16.873)" gradientUnits="userSpaceOnUse">
      <stop id="stop8664" offset="0" style="stop-color:#000"/>
      <stop id="stop8666" offset="1" style="stop-color:#000;stop-opacity:0"/>
    </radialGradient>
    <radialGradient id="radialGradient4250" cx="15.571" cy="2.958" r="20.936" gradientTransform="matrix(1.2862 .7817 -.71078 1.1696 -2.354 .248)" gradientUnits="userSpaceOnUse">
      <stop id="stop4246" offset="0" style="stop-color:#e4e4e4"/>
      <stop id="stop4248" offset="1" style="stop-color:#d3d3d3"/>
    </radialGradient>
  </defs>
  <g id="layer2">
    <g id="g5022" transform="matrix(.02411 0 0 .0193 45.49 41.752)">
      <path id="rect4173" d="M-1559.3-150.7h1339.6v478.36h-1339.6z" style="opacity:.40206;color:#000;fill:url(#linearGradient5027)"/>
      <path id="path5058" d="M-219.62-150.68v478.33c142.88.9 345.4-107.17 345.4-239.2 0-132.02-159.44-239.13-345.4-239.13" style="opacity:.40206;color:#000;fill:url(#radialGradient5029)"/>
      <path id="path5018" d="M-1559.3-150.68v478.33c-142.8.9-345.4-107.17-345.4-239.2 0-132.02 159.5-239.13 345.4-239.13" style="opacity:.40206;color:#000;fill:url(#radialGradient5031)"/>
    </g>
    <path id="path4196" d="M11.286 13.088c-.625 0-1.032.29-1.282.843L3.536 31.035s-.25.671-.25 1.781v9.65c0 1.083.657 1.625 1.656 1.625h38.562c.985 0 1.594-.718 1.594-1.844v-9.65s.106-.77-.094-1.312l-6.718-17.197c-.185-.512-.637-.988-1.125-1z" style="stroke-linejoin:round;stroke:#535353;stroke-linecap:round;stroke-width:2;fill:none"/>
    <path id="path4170" d="m3.274 32.122.764-.692 37.61.062 3.462.317v10.439c0 1.125-.607 1.843-1.592 1.843H4.935c-.998 0-1.661-.542-1.661-1.624z" style="fill-rule:evenodd;fill:url(#linearGradient4234)"/>
    <path id="path3093" d="M3.55 31.039c-.715 1.465-.001 2.393 1.035 2.393h39c1.119-.024 1.845-1.012 1.428-2.143l-6.714-17.21c-.184-.512-.655-.988-1.143-1H11.299c-.625 0-1.036.303-1.286.857L3.549 31.039z" style="fill-rule:evenodd;fill:url(#radialGradient4250)"/>
    <path id="rect4174" d="M7.858 36.299h17.625v5.563H7.858z" style="fill-rule:evenodd;color:#000;fill:url(#linearGradient4209)"/>
    <path id="path4194" d="M7.858 41.862V37.85c1.836 3.179 8.296 4.012 12.937 4.012z" style="opacity:.81143;fill-rule:evenodd;fill:url(#linearGradient4242)"/>
    <path id="path4201" d="M44.796 30.754c.064 1.25-.414 2.316-1.322 2.343H5.355c-1.289 0-1.867-.325-2.084-.868.092.945.826 1.65 2.084 1.65h38.12c1.075-.033 1.752-1.424 1.351-2.995z" style="fill-rule:evenodd;fill:#fff"/>
    <path id="path4211" d="M10.969 15.281c-.046.201-.188.387-.188.594 0 .949.591 1.789 1.344 2.594.24-.154.365-.355.625-.5-.94-.816-1.553-1.717-1.781-2.688m26.656 0c-.229.97-.842 1.873-1.781 2.688.274.153.404.368.656.531.757-.807 1.312-1.673 1.312-2.625 0-.207-.141-.393-.187-.594m2.187 8.438c-.613 4.04-7.298 7.25-15.531 7.25-8.212 0-14.86-3.193-15.5-7.219-.032.197-.125.392-.125.594 0 4.318 6.989 7.844 15.625 7.844s15.656-3.526 15.657-7.844c0-.213-.09-.418-.126-.625" style="opacity:.69143;fill-rule:evenodd;color:#000;fill:url(#linearGradient4272)"/>
    <path id="path4224" d="M8.574 25.594a1.37 1.017 0 1 1-2.74 0 1.37 1.017 0 1 1 2.74 0" style="fill-rule:evenodd;color:#000;fill-opacity:.45763;fill:#fff" transform="translate(.088 5.302)"/>
    <path id="path4226" d="M8.574 25.594a1.37 1.017 0 1 1-2.74 0 1.37 1.017 0 1 1 2.74 0" style="fill-rule:evenodd;color:#000;fill-opacity:.45763;fill:#fff" transform="translate(33.967 5.213)"/>
    <path id="path4252" d="M11.643 13.541c-.602 0-.993.279-1.234.812L3.994 30.944s-.24.646-.24 1.715v9.29c0 1.354.443 1.627 1.594 1.627h37.687c1.323 0 1.534-.317 1.534-1.838v-9.29s.102-.742-.09-1.264l-6.593-16.806c-.178-.492-.551-.826-1.021-.837z" style="stroke-linejoin:round;stroke:url(#linearGradient4260);stroke-linecap:round;fill:none"/>
    <path id="path4282" d="M40.5 36.554v5.021" style="stroke-opacity:.42373;stroke:#fff;stroke-linecap:square;stroke-width:1px;fill:none"/>
    <path id="path4284" d="M38.5 36.614v5.021" style="stroke-opacity:.42373;stroke:#fff;stroke-linecap:square;stroke-width:1px;fill:none"/>
    <path id="path4286" d="M36.5 36.614v5.021" style="stroke-opacity:.42373;stroke:#fff;stroke-linecap:square;stroke-width:1px;fill:none"/>
    <path id="path4288" d="M34.5 36.614v5.021" style="stroke-opacity:.42373;stroke:#fff;stroke-linecap:square;stroke-width:1px;fill:none"/>
    <path id="path4290" d="M32.5 36.614v5.021" style="stroke-opacity:.42373;stroke:#fff;stroke-linecap:square;stroke-width:1px;fill:none"/>
    <path id="path4292" d="M30.5 36.614v5.021" style="stroke-opacity:.42373;stroke:#fff;stroke-linecap:square;stroke-width:1px;fill:none"/>
    <path id="path4294" d="M39.5 36.604v5.021" style="opacity:.097143;stroke:#000;stroke-linecap:square;stroke-width:1px;fill:none"/>
    <path id="path4296" d="M37.5 36.664v5.021" style="opacity:.097143;stroke:#000;stroke-linecap:square;stroke-width:1px;fill:none"/>
    <path id="path4298" d="M35.5 36.664v5.021" style="opacity:.097143;stroke:#000;stroke-linecap:square;stroke-width:1px;fill:none"/>
    <path id="path4300" d="M33.5 36.664v5.021" style="opacity:.097143;stroke:#000;stroke-linecap:square;stroke-width:1px;fill:none"/>
    <path id="path4302" d="M31.5 36.664v5.021" style="opacity:.097143;stroke:#000;stroke-linecap:square;stroke-width:1px;fill:none"/>
    <path id="path4572" d="M7.875 36.312v5.532h12.563L8.219 41.5z" style="opacity:.44;fill-rule:evenodd;fill:#fff"/>
    <path id="path2545" d="M39.875 19.562a14.875 6.688 0 1 1-29.75 0 14.875 6.688 0 1 1 29.75 0" style="opacity:.20571;fill-rule:evenodd;color:#000;fill:url(#linearGradient2553)" transform="matrix(1.0378 0 0 1.0607 -1.633 3.03)"/>
  </g>
  <g id="layer1">
    <path id="path8660" d="M40.482 36.421a15.645 8.397 0 1 1-31.29 0 15.645 8.397 0 1 1 31.29 0" style="opacity:.14118;fill-rule:evenodd;color:#000;fill:url(#radialGradient8668)" transform="matrix(1.1302 0 0 -.7596 -3.91 53.666)"/>
    <path id="path1432" d="M3.204 25.835C2.173-5.385 28.742-.451 28.582 15.789h7.312L24.519 28.775 12.583 15.789h7.542C20.584 4.819 3.41 1.61 3.204 25.835z" style="color:#000;display:block;stroke:url(#linearGradient6931);fill:url(#linearGradient6907)"/>
    <path id="path2177" d="M7.664 9.104C12.406-.04 28.122 2.718 27.762 16.58h6.317l-9.566 10.958L14.417 16.58h6.456c.272-11.575-9.95-11.044-13.209-7.475z" style="opacity:.47159;color:#000;display:block;stroke:url(#linearGradient1764);stroke-miterlimit:10;fill:none"/>
    <path id="path4989" d="m34.767 16.212-1.984 2.545c-5.41-1.516-7.886 2.73-15.674 1.732l-3.861-4.409 7.186.083c.049-11.846-12.09-11.164-15.405-2.535C8.837-1.261 27.893.806 28.283 16.114z" style="opacity:.49432;color:#000;fill:url(#radialGradient4997)"/>
  </g>
</svg>
