<svg xmlns="http://www.w3.org/2000/svg" xml:space="preserve" overflow="visible" viewBox="0 0 451.285 391.115">
  <switch>
    <g>
      <g id="图层_1">
        <path fill="#fbb2d2" d="M110.35 166.86s-45.964-17.467-92.979 23.139c-47.016 40.603 13.259 117.58 73.059 112.83 59.805-4.741 105.55-42.13 105.55-42.13s-55.689 54.061-27.131 106.06c28.564 52.002 98.168 8.868 94.317-32.943-.01 0-1.71-240.2-152.82-166.96"/>
        <path fill="#761301" d="M206.13 391.12c-11.163 0-26.763-4.185-37.711-24.121-14.863-27.051-6.656-54.622 2.848-72.991 6.948-13.435 15.589-24.039 20.491-29.531-13.018 9.348-52.732 34.992-101.3 38.842-1.767.139-3.57.213-5.357.213-37.386 0-70.646-29.342-81.198-57.706-8.141-21.886-3.477-41.844 13.139-56.194 25.833-22.308 51.375-26.992 68.25-26.992 13.952 0 23.531 3.171 25.02 3.697 19.017-9.195 36.678-13.854 52.495-13.854 22.751 0 42.21 9.568 57.844 28.436 12.474 15.053 22.554 36.029 29.948 62.348 12.575 44.757 13.047 90.099 13.049 90.551 1.117 12.127-4.029 25.453-14.126 36.525-11.67 12.79-28.31 20.76-43.38 20.76m-10.15-130.91a.487.487 0 0 1 .338.838c-.554.538-55.095 54.402-27.041 105.48 10.718 19.516 25.958 23.616 36.857 23.616 14.807 0 31.155-7.842 42.672-20.463 9.915-10.865 14.97-23.924 13.872-35.815-.006-.492-.475-45.723-13.02-90.356-11.548-41.082-35.986-90.052-86.846-90.052-15.718 0-33.3 4.659-52.251 13.844a.48.48 0 0 1-.39.016c-.101-.036-9.933-3.702-24.873-3.702-16.711 0-42.006 4.641-67.607 26.754-16.284 14.05-20.852 33.62-12.863 55.1 10.437 28.052 43.317 57.07 80.281 57.07a68 68 0 0 0 5.28-.209c58.958-4.676 104.82-41.648 105.28-42.021.09-.08.2-.11.31-.11"/>
        <path fill="#b183be" d="M91.577 229.52c6.338 17.77-2.935 37.318-20.705 43.658-17.774 6.34-37.323-2.934-43.661-20.705-6.338-17.773 2.933-37.321 20.705-43.659 17.776-6.34 37.321 2.93 43.661 20.7"/>
        <path fill="#fff" d="M59.391 278.1c-15.641 0-29.68-9.902-34.937-24.643-3.331-9.332-2.821-19.405 1.422-28.355 4.244-8.954 11.726-15.72 21.057-19.045a37 37 0 0 1 12.458-2.164c15.645 0 29.686 9.901 34.95 24.643 6.863 19.269-3.22 40.53-22.485 47.4a36.9 36.9 0 0 1-12.465 2.16m0-68.35c-3.568 0-7.097.615-10.489 1.824-7.859 2.799-14.158 8.5-17.731 16.039-3.58 7.538-4 16.019-1.201 23.877 4.429 12.416 16.251 20.753 29.421 20.753 3.571 0 7.102-.614 10.498-1.825 16.22-5.783 24.714-23.69 18.927-39.914-4.429-12.42-16.251-20.76-29.425-20.76"/>
        <path fill="#ecaed5" d="M163.22 227.46c2.865 8.042-1.324 16.883-9.369 19.75-8.041 2.868-16.883-1.325-19.748-9.365-2.869-8.04 1.328-16.882 9.365-19.748 8.05-2.86 16.9 1.33 19.76 9.37"/>
        <path fill="#fff" d="M148.66 251.04c-7.755 0-14.712-4.909-17.319-12.215a18.27 18.27 0 0 1 .708-14.051 18.27 18.27 0 0 1 10.435-9.438 18.4 18.4 0 0 1 6.176-1.073c7.751 0 14.712 4.906 17.313 12.212 3.403 9.548-1.593 20.085-11.137 23.492-1.99.72-4.07 1.08-6.17 1.08m0-30.92c-1.425 0-2.846.248-4.21.734a12.43 12.43 0 0 0-7.106 6.433 12.4 12.4 0 0 0-.48 9.573 12.55 12.55 0 0 0 11.797 8.32c1.427 0 2.844-.245 4.207-.73 6.506-2.319 9.911-9.503 7.593-16.009-1.77-4.97-6.51-8.31-11.8-8.31"/>
        <path fill="#b183be" d="M225.77 246.88c2.216 6.221-1.031 13.062-7.243 15.278-6.226 2.22-13.062-1.025-15.284-7.244-2.218-6.22 1.027-13.062 7.247-15.281 6.21-2.23 13.04 1.02 15.27 7.24"/>
        <path fill="#fff" d="M214.51 265.78a14.93 14.93 0 0 1-14.027-9.888c-2.753-7.734 1.293-16.266 9.023-19.025a14.9 14.9 0 0 1 5-.868c6.272 0 11.909 3.975 14.021 9.892 2.753 7.734-1.295 16.266-9.02 19.02-1.61.6-3.29.88-4.99.88m-.01-23.92a8.9 8.9 0 0 0-3.033.53c-4.689 1.672-7.147 6.846-5.473 11.539a9.05 9.05 0 0 0 8.51 5.998c1.027 0 2.05-.178 3.031-.528 4.686-1.674 7.139-6.847 5.471-11.54-1.28-3.59-4.7-6-8.51-6m-2.733 124.06c-13.238 0-25.128-8.38-29.576-20.858-2.82-7.902-2.394-16.426 1.199-24.005 3.599-7.579 9.931-13.305 17.831-16.124a31.3 31.3 0 0 1 10.544-1.83c13.235 0 25.126 8.383 29.575 20.861 2.818 7.9 2.395 16.426-1.205 24.005-3.596 7.581-9.92 13.305-17.818 16.123a31.3 31.3 0 0 1-10.55 1.83m-.01-56.96c-2.921 0-5.801.498-8.578 1.49-6.428 2.294-11.575 6.95-14.504 13.116-2.921 6.162-3.268 13.099-.979 19.527 3.625 10.152 13.293 16.972 24.062 16.972 2.919 0 5.805-.5 8.581-1.491 6.423-2.291 11.569-6.949 14.496-13.115 2.925-6.166 3.271-13.101.979-19.525-3.62-10.17-13.28-16.99-24.06-16.99"/>
        <g opacity=".53">
          <path fill="none" d="M.539 163.12h262.78v227.5H.539z"/>
          <path fill="#fbb2d2" d="M213.17 241.09s-.143.219-.401.634c.31-.42.4-.63.4-.63m43.891 51.366c7.552 36.691-36.257 107.59-68.291 72.03-30.448-33.806 19.039-114.84 24-122.76-1.927 2.584-12.786 13.34-69.661 35.403-66.167 25.67-133.31 4.01-129.08-50.01 4.226-54.021 80.402-63.224 80.402-63.224l-.985-.411c-17.581-1.572-46.622 1.071-76.078 26.512-47.016 40.603 13.259 117.58 73.059 112.83 59.805-4.741 105.55-42.13 105.55-42.13s-55.691 54.061-27.131 106.06c28.564 52.002 98.168 8.868 94.317-32.943 0 0-.139-19.115-3.722-44.915-2.91-4.92-4.14-4.88-2.39 3.56"/>
        </g>
        <path fill="#fbb2d2" d="M215.64 125.46s-5.21-63.129 63.777-91.765c68.992-28.634 124.95 1.953 115.19 76.797-9.762 74.846-57.271 102.18-57.271 102.18s77.452-42.955 106.74-1.956c29.286 41.004-42.954 80.706-103.48 67.038s-130.82-22.779-149.04-81.354c-18.22-58.57 24.08-70.94 24.08-70.94"/>
        <path fill="#761301" d="M365.89 280.99c-8.747 0-17.294-.929-25.395-2.757-5.984-1.354-12.182-2.684-18.176-3.97-56.397-12.123-114.72-24.66-131.22-77.714-6.465-20.781-6.104-38.1 1.072-51.479 7.597-14.158 20.599-19.146 22.965-19.954-.137-2.554-.575-17.391 6.069-34.97 6.716-17.756 22.232-42.039 58.032-56.899 17.01-7.062 33.361-10.644 48.597-10.644 21.715 0 39.616 7.309 51.76 21.135 13.795 15.717 19.16 38.823 15.512 66.819-7.676 58.796-38.978 88.611-51.902 98.601 11.571-5.553 37.701-16.654 61.647-16.654 17.793 0 31.126 6.031 39.632 17.932 7.785 10.904 8.915 22.473 3.262 33.453-10.89 21.15-46.08 37.1-81.86 37.1m-38.06-257.41c-15.11 0-31.328 3.554-48.223 10.567-35.458 14.721-50.826 38.74-57.473 56.305-7.214 19.041-6.018 34.812-6.008 34.972a.49.49 0 0 1-.346.508c-.146.042-14.629 4.44-22.763 19.617-7.041 13.136-7.373 30.198-.992 50.712 16.331 52.509 74.374 64.983 130.5 77.05 5.994 1.289 12.197 2.619 18.184 3.973 8.033 1.811 16.504 2.73 25.18 2.73 35.44 0 70.258-15.719 80.989-36.571 5.471-10.634 4.365-21.851-3.193-32.437-8.309-11.629-21.373-17.526-38.836-17.526-31.52 0-66.91 19.426-67.27 19.622a.494.494 0 0 1-.662-.188.497.497 0 0 1 .182-.664c.473-.27 47.418-28.095 57.033-101.82 3.618-27.712-1.668-50.55-15.278-66.051-11.95-13.604-29.59-20.796-51.02-20.796"/>
        <path fill="#b183be" d="M331.33 50.96c13.854 9.72 17.203 28.825 7.487 42.674-9.719 13.851-28.823 17.203-42.679 7.488-13.855-9.718-17.201-28.823-7.484-42.678 9.71-13.847 28.82-17.198 42.67-7.482"/>
        <path fill="#fff" d="M313.71 109.61c-6.916 0-13.572-2.107-19.252-6.089-15.146-10.628-18.83-31.602-8.2-46.756 6.277-8.948 16.562-14.287 27.504-14.287 6.915 0 13.567 2.103 19.251 6.085 15.146 10.633 18.83 31.605 8.203 46.756-6.27 8.942-16.56 14.292-27.5 14.292m.05-61.278a27.78 27.78 0 0 0-22.715 11.793c-8.771 12.512-5.733 29.826 6.774 38.596a27.5 27.5 0 0 0 15.889 5.03c9.036 0 17.526-4.41 22.708-11.798 8.774-12.506 5.736-29.819-6.769-38.596a27.5 27.5 0 0 0-15.88-5.024"/>
        <path fill="#ecaed5" d="M289.94 161.14c9.434 6.615 11.716 19.628 5.1 29.058-6.617 9.436-19.629 11.714-29.063 5.099-9.425-6.617-11.707-19.625-5.095-29.058 6.62-9.43 19.63-11.72 29.06-5.1"/>
        <path fill="#fff" d="M277.95 202.01a23.65 23.65 0 0 1-13.645-4.314c-10.739-7.534-13.348-22.402-5.813-33.139a23.83 23.83 0 0 1 19.495-10.127c4.899 0 9.62 1.492 13.637 4.313 5.207 3.649 8.676 9.105 9.776 15.366a23.64 23.64 0 0 1-3.955 17.77 23.84 23.84 0 0 1-19.49 10.13m.03-41.72a17.95 17.95 0 0 0-14.695 7.632c-5.682 8.098-3.714 19.302 4.377 24.98a17.8 17.8 0 0 0 10.281 3.254 17.95 17.95 0 0 0 14.697-7.637 17.8 17.8 0 0 0 2.98-13.395 17.8 17.8 0 0 0-7.366-11.583 17.74 17.74 0 0 0-10.27-3.25"/>
        <g opacity=".62">
          <path fill="none" d="M187 23.109h263.8v257.4H187z"/>
          <path fill="#fbb2d2" d="M315.54 221.08c61.502-18.546 119.1-5.367 119.59 7.811.488 13.18-22.454 43.93-110.32 27.822-87.857-16.107-129.83-98.109-80.047-168.89 41.412-58.869 88.555-62.697 103.25-62.317-19.301-4.878-43.047-2.413-68.595 8.188-68.987 28.636-63.777 91.765-63.777 91.765s-42.306 12.368-24.082 70.942c18.22 58.574 88.515 67.686 149.04 81.35 60.525 13.669 132.77-26.031 103.48-67.033-29.286-41-106.74 1.955-106.74 1.955s47.509-27.336 57.271-102.18c1.128-8.637 1.344-16.654.802-24.092-10.03 94.632-79.87 134.67-79.87 134.67"/>
        </g>
        <path fill="#f292c7" d="M410.58 212.84c12.64 8.862 15.695 26.297 6.832 38.928-8.863 12.639-26.3 15.689-38.927 6.83-12.641-8.864-15.703-26.293-6.832-38.934 8.86-12.64 26.29-15.69 38.93-6.83"/>
        <path fill="#fff" d="M394.51 266.6a30.7 30.7 0 0 1-17.711-5.602c-6.753-4.734-11.259-11.818-12.684-19.94-1.425-8.125.397-16.319 5.14-23.072 5.768-8.23 15.228-13.142 25.297-13.142a30.7 30.7 0 0 1 17.711 5.603c6.749 4.734 11.251 11.817 12.674 19.942 1.431 8.125-.396 16.317-5.132 23.068a30.96 30.96 0 0 1-25.3 13.14m.04-55.9a25.09 25.09 0 0 0-20.51 10.647c-3.834 5.475-5.313 12.114-4.158 18.697 1.154 6.58 4.809 12.321 10.278 16.16a24.86 24.86 0 0 0 14.348 4.536 25.07 25.07 0 0 0 20.504-10.653c3.84-5.469 5.314-12.104 4.156-18.69-1.152-6.581-4.803-12.32-10.271-16.157-4.23-2.98-9.2-4.55-14.35-4.55"/>
        <path fill="#b183be" d="M320.82 219.16c5.344 3.747 6.632 11.12 2.887 16.46-3.751 5.341-11.12 6.634-16.456 2.89-5.348-3.748-6.637-11.118-2.888-16.461 3.75-5.34 11.12-6.64 16.46-2.89"/>
        <path fill="#fff" d="M314.02 243.58c-3.039 0-5.966-.926-8.46-2.675a14.66 14.66 0 0 1-6.054-9.524 14.65 14.65 0 0 1 2.453-11.015 14.77 14.77 0 0 1 12.084-6.276c3.034 0 5.961.923 8.455 2.675 6.656 4.667 8.272 13.879 3.61 20.535a14.79 14.79 0 0 1-12.09 6.28m.03-23.63a8.9 8.9 0 0 0-7.284 3.784c-1.367 1.945-1.89 4.301-1.48 6.64s1.704 4.376 3.645 5.742a8.84 8.84 0 0 0 5.097 1.61 8.91 8.91 0 0 0 7.289-3.788c2.815-4.012 1.84-9.564-2.174-12.379a8.94 8.94 0 0 0-5.11-1.6"/>
        <path fill="#b33a9a" d="M264.6 223.96c1.144-4.035 4.483-7.034 10.587-5.646 7.159 1.627 6.838 16.918-1.621 19.199-7.04 1.9-10.79-7.13-8.97-13.55"/>
        <path fill="#761301" d="M271.71 238.26c-2.186 0-4.127-1.04-5.611-3.003-2.227-2.952-3.037-7.65-1.968-11.431 1.413-4.954 5.591-7.258 11.174-5.989 3.217.734 5.355 4.163 5.442 8.734.093 4.557-2.079 10.074-7.053 11.414-.67.19-1.34.28-1.98.28m.62-19.8c-4.925 0-6.662 3.529-7.261 5.634-.99 3.503-.251 7.853 1.807 10.576.901 1.189 2.472 2.611 4.834 2.611.56 0 1.142-.081 1.733-.239 4.466-1.204 6.41-6.261 6.331-10.452-.085-4.109-1.923-7.172-4.691-7.798-.97-.21-1.89-.33-2.75-.33"/>
        <path fill="#761301" d="M230.45 236.21c-24.292 0-35.667-10.328-36.319-10.939a1.95 1.95 0 0 1-.083-2.761 1.95 1.95 0 0 1 2.753-.089c.282.26 21.454 19.118 68.02 3.802a1.957 1.957 0 0 1 2.467 1.245 1.957 1.957 0 0 1-1.249 2.465c-14.03 4.63-25.85 6.29-35.59 6.29"/>
        <path fill="#761301" d="M270.63 259.97a.974.974 0 0 1-.954-.789c-12.293-63.411 18.355-116.33 18.663-116.86a.986.986 0 0 1 1.34-.346.98.98 0 0 1 .349 1.338c-.313.522-30.585 52.83-18.436 115.5a.977.977 0 0 1-.769 1.143c-.06.02-.12.02-.19.02"/>
        <path fill="#f62b66" d="M343.2 118.26c0 11.771-9.539 21.312-21.314 21.312-11.769 0-21.312-9.542-21.312-21.312 0-11.772 9.543-21.316 21.312-21.316 11.77-.006 21.31 9.536 21.31 21.316"/>
        <path fill="#761301" d="M321.89 140.06c-12.021 0-21.798-9.781-21.798-21.801 0-12.023 9.776-21.805 21.798-21.805s21.805 9.782 21.805 21.805c-.01 12.01-9.79 21.8-21.81 21.8m0-42.631c-11.479 0-20.823 9.343-20.823 20.826 0 11.482 9.344 20.824 20.823 20.824 11.484 0 20.828-9.342 20.828-20.824-.01-11.49-9.35-20.831-20.83-20.831"/>
        <path fill="#f62b66" d="M314.24 90.433c0 14.017-11.363 25.382-25.379 25.382-14.019 0-25.382-11.365-25.382-25.382s11.363-25.383 25.382-25.383c14.02-.005 25.38 11.36 25.38 25.378"/>
        <path fill="#761301" d="M288.86 116.3c-14.268 0-25.873-11.604-25.873-25.872 0-14.265 11.605-25.869 25.873-25.869 14.262 0 25.867 11.604 25.867 25.869 0 14.272-11.61 25.872-25.87 25.872m0-50.761c-13.731 0-24.894 11.166-24.894 24.893s11.162 24.895 24.894 24.895c13.725 0 24.893-11.167 24.893-24.895 0-13.73-11.16-24.896-24.89-24.896"/>
        <g opacity=".17">
          <path fill="none" d="M273.73 72.859h26.603v26.603H273.73z"/>
          <path fill="#fff" d="M300.33 86.161c0 7.344-5.958 13.302-13.302 13.302-7.347 0-13.301-5.958-13.301-13.302 0-7.346 5.954-13.302 13.301-13.302 7.34 0 13.3 5.956 13.3 13.302"/>
        </g>
        <path fill="#f62b66" d="M339.62 147.86c0 13.211-10.709 23.918-23.917 23.918s-23.918-10.707-23.918-23.918c0-13.209 10.709-23.918 23.918-23.918 13.22.01 23.92 10.72 23.92 23.92"/>
        <path fill="#761301" d="M315.71 172.27c-13.46 0-24.404-10.95-24.404-24.407s10.944-24.406 24.404-24.406c13.455 0 24.405 10.948 24.405 24.406-.01 13.46-10.96 24.41-24.41 24.41m0-47.83c-12.919 0-23.429 10.509-23.429 23.43s10.51 23.43 23.429 23.43c12.921 0 23.431-10.509 23.431-23.43s-10.51-23.43-23.43-23.43"/>
        <path fill="#f62b66" d="M280.4 115.16c0 11.861-9.612 21.477-21.477 21.477-11.861 0-21.479-9.616-21.479-21.477s9.618-21.476 21.479-21.476c11.86.002 21.48 9.616 21.48 21.476"/>
        <path fill="#761301" d="M258.92 137.13c-12.112 0-21.966-9.854-21.966-21.967s9.854-21.965 21.966-21.965c12.109 0 21.967 9.854 21.967 21.965-.01 12.11-9.86 21.97-21.97 21.97m0-42.956c-11.572 0-20.989 9.416-20.989 20.988 0 11.575 9.417 20.988 20.989 20.988 11.575 0 20.988-9.413 20.988-20.988 0-11.57-9.42-20.986-20.99-20.986"/>
        <path fill="#f62b66" d="M292.11 148.68c0 12.4-10.053 22.455-22.456 22.455-12.397 0-22.452-10.054-22.452-22.455 0-12.399 10.055-22.451 22.452-22.451 12.41 0 22.46 10.05 22.46 22.45"/>
        <path fill="#761301" d="M269.66 171.62c-12.646 0-22.942-10.289-22.942-22.941 0-12.65 10.297-22.941 22.942-22.941 12.654 0 22.942 10.292 22.942 22.941 0 12.65-10.29 22.94-22.94 22.94m0-44.91c-12.112 0-21.964 9.854-21.964 21.965s9.852 21.967 21.964 21.967 21.965-9.855 21.965-21.967c0-12.11-9.85-21.97-21.96-21.97"/>
        <path fill="#fbe33a" d="M310.99 126.55c0 10.42-8.449 18.871-18.874 18.871-10.422 0-18.871-8.451-18.871-18.871 0-10.424 8.449-18.875 18.871-18.875 10.42 0 18.87 8.45 18.87 18.87"/>
        <path fill="#761301" d="M292.11 145.91c-10.676 0-19.359-8.684-19.359-19.359 0-10.679 8.684-19.363 19.359-19.363s19.364 8.684 19.364 19.363c.01 10.68-8.68 19.36-19.36 19.36m0-37.74c-10.138 0-18.383 8.247-18.383 18.386 0 10.135 8.245 18.383 18.383 18.383s18.386-8.248 18.386-18.383c0-10.15-8.25-18.39-18.39-18.39"/>
        <g opacity=".17">
          <path fill="none" d="M244.69 99.705h21.478v21.479H244.69z"/>
          <path fill="#fff" d="M266.16 110.44c0 5.93-4.806 10.738-10.737 10.738-5.938 0-10.74-4.808-10.74-10.738s4.803-10.739 10.74-10.739c5.94.005 10.74 4.819 10.74 10.739"/>
        </g>
        <g opacity=".17">
          <path fill="none" d="M252.74 137.78h21.475v21.476H252.74z"/>
          <path fill="#fff" d="M274.22 148.52c0 5.931-4.803 10.739-10.735 10.739-5.937 0-10.739-4.808-10.739-10.739 0-5.93 4.803-10.738 10.739-10.738 5.93 0 10.74 4.81 10.74 10.74"/>
        </g>
        <g opacity=".17">
          <path fill="none" d="M300.58 147.54h16.593v16.596H300.58z"/>
          <path fill="#fff" d="M317.17 155.84a8.298 8.298 0 1 1-8.297-8.297c4.585 0 8.3 3.72 8.3 8.3"/>
        </g>
        <g opacity=".17">
          <path fill="none" d="M318.15 101.17h15.618v15.619H318.15z"/>
          <path fill="#fff" d="M333.77 108.98a7.81 7.81 0 0 1-7.811 7.811c-4.318 0-7.808-3.497-7.808-7.811s3.489-7.809 7.808-7.809c4.31 0 7.81 3.5 7.81 7.81"/>
        </g>
        <path fill="#fff" d="M298.38 121.92c0 5.66-4.593 10.252-10.251 10.252-5.668 0-10.249-4.593-10.249-10.252s4.581-10.25 10.249-10.25c5.66-.01 10.25 4.59 10.25 10.25"/>
        <path fill="#fcdcbb" d="M189.58 198.85s6.517 23.996 55.638 38.76c49.126 14.77 131.66 22.236 122.4 58.49-9.251 36.252-57.94 31.592-96.007 18.1-38.058-13.494-87.595-63.092-92.416-93.067-4.82-29.96 10.39-22.28 10.39-22.28"/>
        <path fill="#761301" d="M322.54 324.65c-14.788 0-32.933-3.546-51.092-9.982-38.508-13.65-87.906-63.434-92.732-93.448-1.729-10.729-1.1-17.933 1.865-21.413 1.313-1.541 3.037-2.322 5.129-2.322 2.216 0 4.017.898 4.094.938.12.062.21.174.251.304.066.239 7.07 23.924 55.304 38.425 11.332 3.405 24.189 6.365 37.804 9.5 35.535 8.174 72.278 16.631 82.744 33.799 2.905 4.769 3.639 10.078 2.182 15.778-4.73 18.58-20.48 28.41-45.53 28.41m-136.83-126.19c-1.792 0-3.269.668-4.388 1.981-2.769 3.252-3.326 10.191-1.647 20.623 4.788 29.75 53.852 79.124 92.099 92.685 18.063 6.401 36.09 9.925 50.766 9.925 17.123 0 38.759-4.803 44.603-27.689 1.411-5.51.731-10.425-2.073-15.027-10.243-16.814-46.782-25.221-82.121-33.356-13.633-3.137-26.51-6.101-37.868-9.515-46.292-13.916-55.055-36.38-55.895-38.875-.48-.18-1.87-.72-3.47-.72"/>
        <path fill="#fa8983" d="M284.05 247.35c-11.231-2.586-22.324-5.126-32.361-7.881.076 15.129-3.56 36.992-22.869 48.832 14.015 11.563 29.139 21.063 42.792 25.902a203 203 0 0 0 6.383 2.137c18.12-23.96 12.06-52.62 6.06-68.99"/>
        <path fill="#761301" d="M277.99 316.83a.5.5 0 0 1-.152-.021 205 205 0 0 1-6.391-2.143c-12.944-4.589-28.192-13.816-42.938-25.984a.48.48 0 0 1-.176-.41.48.48 0 0 1 .228-.382c18.844-11.56 22.714-32.708 22.637-48.417 0-.154.067-.296.191-.387a.46.46 0 0 1 .426-.085c9.762 2.68 20.294 5.103 31.451 7.67l.888.204c.16.04.293.152.352.308 5.658 15.427 12.392 44.966-6.126 69.455-.1.12-.24.19-.39.19m-48.33-28.47c14.496 11.882 29.435 20.886 42.12 25.386 1.865.66 3.846 1.325 6.035 2.027 17.885-23.94 11.419-52.757 5.867-68.007l-.628-.146c-10.933-2.515-21.267-4.893-30.873-7.512-.05 15.73-4.06 36.54-22.53 48.25"/>
        <path fill="#fa8983" d="M320.03 256.29c6.965 16.583 15.079 46.383-4.124 67.642 24.523 1.563 45.896-5.06 51.709-27.831 5.11-20.02-17.79-31.26-47.59-39.81"/>
        <path fill="#761301" d="M322.55 324.64h-.004c-2.153 0-4.395-.075-6.668-.22a.483.483 0 0 1-.328-.811c19.143-21.193 10.745-51.151 4.034-67.128a.488.488 0 0 1 .587-.657c25.267 7.243 53.545 18.378 47.92 40.399-4.74 18.59-20.49 28.41-45.53 28.41m-5.61-1.13c1.913.108 3.789.158 5.608.158h.004c17.123 0 38.751-4.803 44.595-27.684 5.352-20.927-21.684-31.811-46.272-38.938 6.64 16.2 14.35 45.33-3.93 66.46"/>
        <path fill="none" d="M178.25 198.22h190.09v125.94H178.25z"/>
        <path fill="#fddcbb" d="M352.33 268.92c-7.2 28.487-43.251 40.563-90.483 19.9-46.852-20.5-69.55-68.086-77.973-90.603-3.718 1.056-7.41 5.947-4.682 22.918 4.82 29.972 54.358 79.574 92.416 93.066 38.066 13.492 86.756 18.152 96.007-18.1 2.96-11.63-3.52-20.29-15.3-27.19"/>
        <path fill="#761301" d="M209.22 273.48c-8.184 0-14.987-1.913-19.248-5.518-13.767-11.646-2.239-32.482-1.741-33.361a1.953 1.953 0 0 1 3.401 1.917c-.108.187-10.434 18.905.861 28.464 4.571 3.871 13.371 5.411 23.539 4.154 13.57-1.697 31.967-8.967 42.921-24.299a1.95 1.95 0 0 1 2.722-.452 1.95 1.95 0 0 1 .458 2.722c-11.684 16.359-31.222 24.108-45.616 25.904-2.52.33-4.97.48-7.3.48"/>
        <path fill="#b33a9a" d="M268.68 228.08s-11.386 1.624-11.712 16.92c-.326 15.294 12.365 16.597 20.172 11.391 7.809-5.208 2.937-18.876-4.226-20.827.01.01.65-7.15-4.23-7.48"/>
        <path fill="#761301" d="M268.32 259.64c-3.294 0-6.128-1.117-8.193-3.23-2.522-2.575-3.753-6.421-3.645-11.418.336-15.528 12.02-17.375 12.131-17.394 1.371.083 2.413.591 3.193 1.508 1.622 1.896 1.66 5.002 1.622 6.103 3.842 1.273 7.174 5.785 8.008 10.91.741 4.589-.725 8.481-4.02 10.683-2.75 1.83-5.97 2.84-9.09 2.84m.33-31.07c-.346.062-10.882 1.766-11.193 16.443-.101 4.725 1.032 8.333 3.366 10.718 1.879 1.915 4.472 2.935 7.495 2.935 2.927 0 5.961-.95 8.556-2.68 2.966-1.977 4.274-5.515 3.593-9.71-.785-4.859-4.087-9.26-7.682-10.24a.486.486 0 0 1-.358-.514c.008-.038.322-3.809-1.365-5.784-.62-.72-1.4-1.11-2.41-1.17"/>
        <path fill="#fcdcbb" d="M236.46 131.73c-2.626-14.077-10.431-26.71-25.116-34.727-8.216-4.489-20.552-9.175-30.031-9.281-44.417-.488-51.74 31.729-51.74 39.537s-10.74 23.429-10.74 23.429-29.288 0-20.988 33.68c8.299 33.682 91.275 47.348 121.54 9.273 13.42-16.88 20.97-40.99 17.08-61.91"/>
        <path fill="#761301" d="M162.37 217.07c-32.485-.004-60.423-14.01-65.002-32.59-2.726-11.072-1.722-19.738 2.99-25.75 6.139-7.839 16.4-8.479 18.211-8.527 1.258-1.872 10.514-15.855 10.514-22.949 0-10.384 9.413-40.031 51.232-40.031l1 .006c9.913.109 22.5 5.101 30.263 9.341 13.707 7.485 22.478 19.61 25.359 35.068 3.729 20.033-3.01 44.489-17.17 62.304-11.68 14.71-32.6 23.14-57.39 23.14m17.95-128.87c-18.421 0-32.325 5.612-41.317 16.683-7.07 8.704-8.938 18.44-8.938 22.372 0 7.872-10.384 23.064-10.826 23.709a.49.49 0 0 1-.402.209c-.108 0-11.401.105-17.714 8.164-4.51 5.765-5.45 14.147-2.799 24.911 4.473 18.155 32.008 31.845 64.053 31.847 24.489 0 45.136-8.294 56.634-22.761 13.99-17.604 20.654-41.75 16.971-61.518-2.826-15.157-11.424-27.049-24.87-34.389-7.661-4.188-20.066-9.111-29.798-9.22h-.98z"/>
        <path fill="#761301" d="M136.9 193.41c-3.786 0-8.842-.532-11.116-3.108-.88-.997-1.276-2.163-1.189-3.467.257-3.629 4.241-7.087 4.413-7.233a.489.489 0 0 1 .632.743c-.037.032-3.846 3.337-4.071 6.559-.07 1.048.241 1.949.95 2.754 3.446 3.906 14.834 2.536 14.948 2.522.243-.042.509.154.544.424a.486.486 0 0 1-.422.544c-.2.04-2.16.28-4.69.28m39.721-23.638c-8.116 0-9.442-6.492-9.452-6.566a.484.484 0 0 1 .388-.567.48.48 0 0 1 .569.385c.06.301 1.533 7.309 11.637 5.47a.5.5 0 0 1 .57.392.493.493 0 0 1-.394.568c-1.23.22-2.33.32-3.33.32"/>
        <path fill="#fa8983" d="M177.42 187.63c-.143-2.127-.452-4.216-.836-6.188-4.284 3.479-10.314 6.794-15.288 8.783-4.101 1.641-7.569.971-10.079-.166-5.415 1.932-9.689 2.605-9.689 2.605 0 2.742 10.529 14.37 20.74 15.538.72-6.87 3.92-16.05 15.16-20.57"/>
        <path fill="#761301" d="M162.27 208.69q-.03.001-.054-.004c-10.668-1.22-21.176-13.068-21.176-16.023 0-.238.178-.444.413-.481.042-.01 4.297-.692 9.599-2.584a.5.5 0 0 1 .367.016c3.108 1.406 6.431 1.467 9.701.156 5.396-2.158 11.203-5.495 15.165-8.708a.46.46 0 0 1 .469-.081c.163.059.28.198.313.366.429 2.2.714 4.301.84 6.249a.48.48 0 0 1-.305.486c-11.014 4.425-14.147 13.411-14.842 20.17a.5.5 0 0 1-.182.332.8.8 0 0 1-.31.08m-20.18-15.63c.921 2.9 10.251 13.198 19.751 14.593.814-6.893 4.135-15.798 15.072-20.344a50 50 0 0 0-.655-4.98c-3.998 3.109-9.581 6.27-14.782 8.348-3.452 1.38-6.977 1.344-10.28-.091-4.27 1.5-7.85 2.24-9.11 2.47"/>
        <path fill="#feffed" d="M161.3 190.22c4.973-1.986 11.004-5.302 15.288-8.781-1.316-6.713-3.571-11.964-3.571-11.964-2.089 11.462-13.334 17.561-21.795 20.581 2.51 1.13 5.98 1.8 10.08.16"/>
        <path fill="#761301" d="M156.4 191.69c-1.83 0-3.643-.398-5.392-1.19a.49.49 0 0 1-.282-.464.49.49 0 0 1 .321-.439c8.687-3.099 19.463-9.117 21.483-20.208a.48.48 0 0 1 .42-.397.476.476 0 0 1 .504.292c.023.056 2.295 5.376 3.606 12.063a.49.49 0 0 1-.176.473c-4.018 3.27-9.931 6.661-15.413 8.856-1.68.68-3.38 1.02-5.07 1.02m-3.82-1.62c2.761.943 5.666.842 8.535-.302 5.293-2.12 10.983-5.37 14.933-8.524-.884-4.389-2.17-8.141-2.905-10.108-2.64 10.06-12.29 15.79-20.56 18.93"/>
        <path fill="#f53a8a" d="M162.27 208.2c3.428.394 6.818-.39 9.766-3.09 4.759-4.365 5.811-11.064 5.386-17.483-11.25 4.51-14.45 13.7-15.16 20.57"/>
        <path fill="#761301" d="M163.9 208.79c-.55 0-1.122-.034-1.688-.099a.49.49 0 0 1-.435-.534c.726-7.029 3.989-16.37 15.46-20.978a.48.48 0 0 1 .44.041.48.48 0 0 1 .224.38c.535 8.003-1.326 14.014-5.537 17.875-2.39 2.19-5.24 3.31-8.46 3.31m-1.09-1.03c3.43.273 6.413-.741 8.894-3.013 3.863-3.541 5.633-9.058 5.269-16.41-10.25 4.4-13.38 12.86-14.16 19.42"/>
        <path fill="#f8fca1" d="M155.57 132.58c-6.189 15.394-20.516 24.424-32 20.172-11.497-4.25-15.801-20.176-9.616-35.568 6.189-15.394 20.52-24.424 32.004-20.172 11.5 4.252 15.8 20.182 9.62 35.572"/>
        <path fill="#761301" d="M129.52 154.29c-2.124 0-4.182-.364-6.116-1.08-4.618-1.708-8.228-5.26-10.452-10.271-3.239-7.316-3.035-17.013.552-25.938 5.091-12.676 15.991-21.53 26.502-21.53 2.125 0 4.185.366 6.124 1.084 4.614 1.704 8.22 5.252 10.44 10.261 3.247 7.316 3.044 17.015-.544 25.946-5.1 12.67-16 21.52-26.5 21.52m10.48-57.84c-10.12 0-20.647 8.604-25.597 20.919-3.493 8.684-3.699 18.096-.566 25.177 2.112 4.767 5.541 8.139 9.896 9.75a16.5 16.5 0 0 0 5.78 1.022c10.12 0 20.645-8.601 25.599-20.919 3.489-8.69 3.703-18.104.56-25.184-2.114-4.764-5.529-8.132-9.884-9.743a16.5 16.5 0 0 0-5.79-1.027"/>
        <g opacity=".5">
          <path fill="none" d="M110.49 109.06h45.161v50.817H110.49z"/>
          <path fill="#fecf0a" d="M153.43 142c-5.382 13.4-18.867 20.887-30.108 16.726-11.244-4.158-16-18.393-10.618-31.79 5.382-13.399 18.861-20.885 30.104-16.73 11.26 4.16 16.01 18.4 10.63 31.79"/>
        </g>
        <path fill="#feffed" d="M153.73 135.91c-5.388 13.397-18.865 20.885-30.104 16.724-11.249-4.157-16.004-18.39-10.62-31.794 5.382-13.395 18.861-20.883 30.11-16.724 11.24 4.16 15.99 18.39 10.61 31.79"/>
        <path fill="#761301" d="M130.11 154.27c-2.299 0-4.537-.397-6.652-1.18-4.867-1.798-8.782-5.582-11.033-10.653-2.876-6.48-2.826-14.417.129-21.779 4.371-10.873 14.048-18.182 24.082-18.182 2.301 0 4.535.4 6.654 1.181 4.865 1.801 8.78 5.585 11.029 10.656 2.875 6.479 2.825 14.417-.129 21.779-4.38 10.87-14.05 18.17-24.08 18.17m6.52-50.81c-9.637 0-18.952 7.062-23.174 17.571-2.859 7.117-2.913 14.777-.145 21.018 2.141 4.827 5.861 8.426 10.479 10.133a18.1 18.1 0 0 0 6.315 1.121c9.635 0 18.948-7.061 23.172-17.57 2.859-7.117 2.915-14.777.143-21.019-2.139-4.827-5.859-8.427-10.479-10.135a18 18 0 0 0-6.32-1.12"/>
        <path fill="none" d="M111.15 98.231h47.244v55.574H111.15z"/>
        <path fill="#f4f3d4" d="M148.49 98.231c7.423 5.986 9.625 18.654 4.672 30.983-5.824 14.5-19.321 23.007-30.149 19.006-7.458-2.762-11.699-10.739-11.712-20.178-1.073 11.418 3.49 21.468 12.267 24.71 11.486 4.252 25.813-4.778 32.002-20.172 5.7-14.2 2.47-28.82-7.08-34.349"/>
        <path fill="#220e0b" d="M153.13 129.65c-2.012 7.789-8.902 12.912-15.39 11.442-6.488-1.475-10.116-8.982-8.104-16.769 2.012-7.792 8.904-12.914 15.39-11.44 6.48 1.48 10.11 8.99 8.1 16.77"/>
        <path fill="#fff" d="M151.37 125.96c-1.052 4.079-4.587 6.774-7.892 6.025-3.307-.749-5.131-4.663-4.079-8.74 1.054-4.08 4.587-6.776 7.892-6.029 3.31.76 5.13 4.68 4.08 8.75"/>
        <path fill="#761301" d="M160.56 99.466a.977.977 0 0 1-.886-1.39c.147-.306 14.039-30.851-7.907-57.078-15.437-18.446-28.719-17.813-33.711-16.692-5.631 1.273-10.18 5.08-11.317 9.475a.97.97 0 0 1-1.189.702.975.975 0 0 1-.699-1.19c1.332-5.163 6.346-9.439 12.774-10.888 5.348-1.206 19.516-1.932 35.638 17.339 22.763 27.205 8.326 58.845 8.182 59.163a.98.98 0 0 1-.88.559m14.485-4.504a.98.98 0 0 1-.662-.263.97.97 0 0 1-.044-1.38c.224-.241 22.479-24.541 14.772-56.135-7.62-31.242-26.06-30.639-26.84-30.601-.546.053-1-.379-1.027-.919a.973.973 0 0 1 .913-1.028c.854-.054 20.823-.824 28.854 32.084 7.963 32.643-15.017 57.682-15.245 57.933a.95.95 0 0 1-.71.309"/>
        <path fill="#fecd08" d="M109.31 37.346c-1.831 3.731-4.855 5.808-6.761 4.646-1.9-1.167-1.961-5.13-.133-8.862 1.824-3.727 4.855-5.804 6.753-4.64 1.91 1.16 1.97 5.125.14 8.856"/>
        <path fill="#761301" d="M103.73 42.803a2.7 2.7 0 0 1-1.43-.393c-2.145-1.316-2.28-5.485-.319-9.495 1.535-3.131 3.954-5.237 6.018-5.237a2.74 2.74 0 0 1 1.433.394c2.145 1.309 2.284 5.476.32 9.486-1.54 3.139-3.96 5.245-6.02 5.245m4.27-14.148c-1.678 0-3.786 1.932-5.141 4.691-1.687 3.441-1.707 7.212-.05 8.232.27.166.585.249.922.249 1.672 0 3.788-1.93 5.147-4.695 1.684-3.448 1.707-7.211.044-8.226a1.7 1.7 0 0 0-.92-.251"/>
        <path fill="#fecd08" d="M156.48 7.82c-3.684-.884-6.143-3.165-5.493-5.092.66-1.925 4.182-2.773 7.869-1.894 3.684.882 6.139 3.161 5.487 5.089-.66 1.93-4.18 2.777-7.87 1.897"/>
        <path fill="#761301" d="M159.36 8.657c-.977 0-1.985-.121-2.987-.362-2.593-.621-4.728-1.961-5.575-3.491-.413-.751-.506-1.522-.271-2.234.55-1.586 2.63-2.57 5.45-2.57a13 13 0 0 1 2.992.358c2.591.622 4.726 1.957 5.567 3.491.417.751.508 1.52.265 2.229-.53 1.593-2.62 2.579-5.44 2.579m-3.38-7.682c-2.315 0-4.135.769-4.525 1.909-.15.449-.085.935.197 1.45.718 1.296 2.614 2.451 4.948 3.013.928.219 1.855.332 2.759.332 2.32 0 4.135-.768 4.523-1.912.152-.45.087-.937-.193-1.447-.72-1.298-2.612-2.451-4.944-3.012-.94-.22-1.87-.333-2.78-.333"/>
        <path fill="none" d="M96.362 87.713h141.12v128.87H96.362z"/>
        <path fill="#fddcbb" d="M236.46 131.73c-2.626-14.077-10.431-26.71-25.116-34.727-8.216-4.489-20.552-9.175-30.031-9.281-8.647-.095-15.869 1.061-21.919 3.021 31.301 9.615 29.734 41.463 45.838 49.316 20.012 9.763 26.843 47.348-13.668 64.92-40.514 17.571-77.611 0-85.419-23.43-4.755-14.263-.288-23.814 3.942-29.111-7.867 2.933-17.446 10.805-12.241 31.93 8.299 33.682 91.275 47.348 121.54 9.273 13.42-16.88 20.97-40.99 17.08-61.91"/>
        <path fill="#f8fca1" d="M214.35 127.58c-6.365 18.233-22.099 28.755-35.139 23.509-13.045-5.248-18.468-24.282-12.108-42.512 6.367-18.232 22.097-28.754 35.143-23.507 13.05 5.24 18.47 24.267 12.11 42.507"/>
        <path fill="#761301" d="M186.2 152.92c-2.481 0-4.894-.464-7.18-1.385-13.265-5.336-18.823-24.681-12.384-43.125 5.176-14.824 16.944-25.184 28.612-25.184 2.479 0 4.892.465 7.178 1.384 13.263 5.336 18.815 24.679 12.382 43.125-5.18 14.82-16.95 25.18-28.61 25.18m9.05-68.714c-11.265 0-22.647 10.086-27.689 24.527-6.269 17.959-.965 36.753 11.83 41.899a18.2 18.2 0 0 0 6.811 1.314c11.261 0 22.643-10.086 27.686-24.533 6.267-17.958.959-36.751-11.826-41.894a18.3 18.3 0 0 0-6.81-1.31"/>
        <g opacity=".5">
          <path fill="none" d="M163.98 99.26h50.414v60.413H163.98z"/>
          <path fill="#fecf0a" d="M212.3 138.77c-5.539 15.868-20.376 24.567-33.145 19.431-12.769-5.134-18.631-22.16-13.095-38.031 5.541-15.87 20.378-24.567 33.145-19.43 12.78 5.13 18.64 22.16 13.1 38.03"/>
        </g>
        <path fill="#feffed" d="M212.41 131.52c-5.539 15.864-20.376 24.562-33.145 19.429s-18.633-22.16-13.093-38.029 20.378-24.567 33.141-19.435c12.78 5.129 18.64 22.155 13.1 38.035"/>
        <path fill="#761301" d="M186.88 152.91c-2.676 0-5.295-.507-7.79-1.51-12.99-5.223-18.988-22.558-13.373-38.644 4.435-12.701 14.876-21.233 25.999-21.233 2.677 0 5.301.506 7.792 1.51 12.983 5.219 18.987 22.556 13.373 38.645-4.44 12.7-14.89 21.23-26 21.23m4.83-60.416c-10.701 0-20.778 8.271-25.08 20.581-5.444 15.604.307 32.383 12.815 37.414a19.8 19.8 0 0 0 7.429 1.443c10.701 0 20.78-8.272 25.075-20.579 5.446-15.604-.303-32.391-12.813-37.42a19.9 19.9 0 0 0-7.42-1.436"/>
        <path fill="none" d="M164.45 86.557h52.555v65.877H164.45z"/>
        <path fill="#f4f3d4" d="M205.13 86.557c8.546 7.249 11.494 22.366 6.396 36.972-5.991 17.175-20.813 27.087-33.104 22.145-8.467-3.409-13.523-12.977-13.89-24.215-.776 13.579 4.714 25.622 14.68 29.627 13.041 5.246 28.774-5.276 35.139-23.509 5.86-16.82 1.68-34.288-9.23-41.023"/>
        <path fill="#220e0b" d="M209.57 124.24c-1.882 8.845-9.096 14.573-16.108 12.796-7.018-1.777-11.182-10.388-9.297-19.235 1.88-8.843 9.093-14.573 16.11-12.796 7.01 1.78 11.18 10.39 9.3 19.24"/>
        <path fill="#fff" d="M206.95 120.8c-1.037 4.865-4.919 8.038-8.678 7.089-3.756-.955-5.963-5.671-4.928-10.534 1.037-4.866 4.923-8.039 8.678-7.088 3.76.95 5.96 5.66 4.93 10.53"/>
        <path fill="#761301" d="M412.71 358.25c-19.827.003-35.015-5.875-45.161-17.472-17.964-20.543-13.618-51.325-13.427-52.626.158-1.065 1.152-1.783 2.22-1.645a1.96 1.96 0 0 1 1.644 2.22c-.043.3-4.261 30.336 12.52 49.499 9.602 10.965 24.311 16.421 43.606 16.109h.026a1.95 1.95 0 0 1 1.952 1.923 1.955 1.955 0 0 1-1.923 1.983c-.49.02-.98.02-1.46.02"/>
      </g>
    </g>
  </switch>
</svg>
