<svg xmlns="http://www.w3.org/2000/svg" overflow="visible" viewBox="0 0 164.017 477.918">
  <switch>
    <g>
      <g id="Layer_1" fill-rule="evenodd" clip-rule="evenodd">
        <path stroke="#000" stroke-miterlimit="10" stroke-width=".036" d="M70.377 129.54c.927-2.886 1.65-7.472 1.958-14.324.309-6.854.258-15.612-.155-26.484.413 3.143 3.556 5.461 9.429 7.162 5.978 1.598 14.272 2.525 25.713 2.783-2.886 3.658-4.998 8.295-6.544 14.479-1.598 6.131-2.268 13.242-2.422 21.898-9.33-1.82-18.655-3.67-27.981-5.52z"/>
        <path fill="#ffc080" stroke="#000" stroke-miterlimit="10" stroke-width=".036" d="M72.181 128.25c.464-1.855 1.083-5.411 1.288-11.233.154-5.821.465-13.551.36-23.392 1.753 2.061 5.154 3.555 10.409 4.689 5.204 1.03 12.056 1.701 20.764 1.803-2.268 1.907-4.174 5.411-5.514 11.079-1.491 5.512-2.473 12.932-2.934 22.259-8.087-1.71-16.23-3.46-24.371-5.21z"/>
        <path stroke="#000" stroke-miterlimit="10" stroke-width=".036" d="m67.492 86.976.31 3.401v-.001q-1.467-.54-3.092-2.628c-1.081-1.494-2.215-3.297-3.4-5.822-.102 2.834.567 5.668 1.444 9.274.926 3.35 3.864 9.378 4.225 11.335.257 1.856-1.34 1.546-2.577-.154-1.494-1.906-3.142-5.409-5.565-10.717-.051 1.236-.051 2.937.207 4.535.206 1.596.464 3.4.979 5.409-1.907-4.122-3.504-8.553-5.359-13.5-2.009-5.049-4.276-10.099-5.41-15.921-1.237-5.875-2.009-12.933-1.134-19.219.927-6.595 2.319-13.912 6.544-19.168 4.122-5.461 11.131-10.047 18.034-12.366 6.75-2.318 15.354-2.421 22.412-1.133 6.854 1.031 14.067 4.328 18.86 8.296 4.535 3.967 6.802 8.398 8.605 15.457 1.596 6.854 2.729 17.57 1.803 26.021-.929 8.501-3.245 16.436-7.162 24.371l2.421-11.232c-.464 2.112-1.288 3.813-2.268 5.513-1.082 1.494-2.317 2.988-3.916 4.071a30 30 0 0 0 2.32-4.844c.668-1.958 1.131-3.761 1.596-6.029-1.288 4.02-2.885 7.626-5.358 11.387-2.523 3.555-6.491 7.935-9.119 10.563-2.73 2.525-4.226 3.813-6.646 4.844-2.525 1.03-4.588 2.37-8.142.824-3.761-1.906-10.408-7.625-13.809-11.387-3.452-3.819-5.718-7.477-6.801-11.187z"/>
        <path fill="#ffc080" stroke="#000" stroke-miterlimit="10" stroke-width=".036" d="M84.854 105.47c-2.266-1.392-4.224-2.938-6.49-5.205-2.628-2.422-5.616-5.771-7.781-9.069-2.164-3.4-3.555-6.956-4.585-11.078-1.134-4.276-2.112-9.841-1.958-14.118-.153-4.431.669-7.987 2.474-12.058 1.803-4.327 4.637-9.48 8.296-12.674q5.332-4.87 12.676-6.184c4.635-.876 10.768-.361 15.405.979 4.585 1.133 8.708 3.04 11.747 6.492 2.834 3.297 5.204 6.853 5.512 13.655.157 6.904-2.266 20.094-4.069 26.845-2.111 6.338-4.431 8.244-7.162 11.851-2.731 3.555-5.666 7.213-8.604 9.584-2.886 2.164-6.338 3.555-8.76 3.761-2.631-.04-4.592-1.43-6.706-2.77z"/>
        <path stroke="#000" stroke-miterlimit="10" stroke-width=".036" d="M68.935 57.709c.567-.257 3.504-1.598 6.028-1.648 2.217-.104 7.369.617 7.936.979.515.154-2.834.463-4.689.515-2.061-.154-4.895-.154-6.491-.207-1.598.104-3.455.361-2.784.361zm37.405-3.4c.205-.413 2.628-.516 4.689-.516 1.906.051 6.286.824 7.007 1.133.619.31-1.802.412-3.091.516-1.601 0-3.916-.259-5.359-.361-1.65-.206-3.45-.721-3.25-.772zm10.72 4.842c-2.061-.464-4.273-.669-6.852-.618-2.523 0-7.985.206-8.45.618-.668.207.979.31 4.741.516.104.721.672 1.237 1.132 1.752.518.516 1.289.772 2.114.979.721-.154 1.546-.721 2.267-1.133.567-.413.875-1.082 1.135-1.598q1.853.309 2.936.309c.67-.154.93-.361.98-.825zM85.99 61.11c-2.422-.773-4.535-.722-6.956.155-2.474.927-6.185 3.761-7.162 4.74-.979.618.669-.103 1.597-.361.722-.412 1.805-.875 3.247-1.598q1.545 3.246 2.937 2.937c.877-.36 1.699-1.648 2.473-4.432 1.288-.566 2.37-.875 3.04-1.133.617-.308.824-.412.824-.308zm12.881 5.203c.672 3.504 1.133 6.286 1.596 8.914.414 2.525.722 4.483.929 6.08 0 1.392-.153 2.01-1.029 2.628-.878.464-2.63.567-4.69.31q-1.313-.387 0 0c.879.155 3.763 1.494 5.103 1.236 1.031-.515 1.699-1.7 1.803-3.349-.051-1.648-.515-3.865-1.186-6.44-.56-2.628-1.54-5.823-2.519-9.379zm-3.863 10.563c.101 0-.824 1.031-.824 1.907-.207.824.669 2.783.464 3.297-.464.413-1.445-.257-1.753-.823-.257-.825-.153-2.319.308-3.092.36-.825 1.495-1.443 1.805-1.289zM88.206 93.88c-.206.258 2.268.567 3.246 1.34.825.669.929 2.576 2.267 2.731 1.236.051 5.152-1.906 5.359-2.113.103-.36-3.452.979-4.534.67-1.135-.567-1.803-2.473-2.628-2.937-1.136-.567-3.762 0-3.71.309z"/>
        <path fill="#a16121" stroke="#000" stroke-miterlimit="10" stroke-width=".036" d="M66.513 85.842c-1.907-4.431-3.297-8.862-3.607-13.861-.618-5.152-.36-10.614.98-15.56 1.288-4.843 4.43-9.944 7.471-13.345 3.04-3.556 6.234-6.029 10.561-7.626 4.227-1.545 8.967-2.215 14.637-1.803-1.446-2.009-3.557-3.246-6.341-3.916-2.831-.722-6.286-.772-10.562-.155 4.02-1.133 7.522-1.855 10.719-1.958 3.191-.154 5.665.103 7.985.979-3.194-1.855-6.236-2.989-9.892-3.4-3.557-.413-7.473-.156-11.544.978 1.701-.978 3.71-1.854 6.647-2.627 2.782-.773 6.08-1.598 10.098-2.268-5.099-1.133-9.893-1.236-14.786-.309-5.051.928-10.357 3.143-14.324 5.668-3.917 2.318-6.75 4.482-9.121 8.656-2.627 4.071-4.791 9.584-5.667 15.561-.928 5.667-.722 12.005.618 19.219 1.34 7.264 3.709 15.199 7.316 24.217l1.494-5.874c.928 2.988 1.597 5.307 2.576 7.162.928 1.855 2.474 4.534 2.628 3.865-.154-.929-2.318-5.565-2.938-8.914-.617-3.401-1.184-7.317-1.133-11.542 1.443 2.577 2.679 4.534 3.71 5.667 1.032 1.083 1.857 1.547 2.475 1.186z"/>
        <path fill="#a16121" stroke="#000" stroke-miterlimit="10" stroke-width=".036" d="M96.397 21.435c3.402.516 6.698 1.598 10.1 3.453 3.195 1.752 7.163 3.967 9.74 7.471 2.47 3.453 4.431 7.883 5.665 13.499 1.136 5.513 2.01 13.191 1.804 19.632-.258 6.234-1.235 12.314-2.936 18.034l.205-4.998c-.669 1.237-1.03 2.061-1.494 3.041-.359.824-.823 1.545-.978 2.163.203-1.339.564-2.422.515-3.452.104-1.031-.207-2.01-.36-2.731q1.544-7.11 2.317-12.521c.464-3.71.927-6.028.618-9.12-.669-3.349-1.752-6.853-3.246-9.738-1.444-2.783-3.039-5.359-5.36-7.163-2.573-1.958-6.851-3.556-9.271-4.379-2.527-.979-4.124-1.237-5.205-.979q-1.624-2.319-3.402-3.4c-1.286-.722-2.471-1.237-3.76-1.134 1.804 0 3.606.104 5.206.31 1.596.206 3.191.464 4.583.979-1.031-2.215-2.523-3.658-5.047-4.74-2.528-1.082-5.774-1.546-9.74-1.597 1.855-.361 3.452-.979 5.204-1.288 1.665-.569 3.21-.827 4.86-1.342z"/>
        <path d="M112.47 55.236c-2.37 1.494-5.256 2.627-8.449 3.607-3.246.772-6.853 1.958-11.026 1.958-4.588 0-10.409-.259-15.098-1.958-4.637-1.958-8.759-4.688-12.366-8.966-3.813-4.482-6.956-13.809-9.429-17.055-2.421-3.297-3.452-1.391-5.05-2.421-1.906-1.082-4.895-2.112-5.358-3.916-.515-1.958.463-4.896 2.937-7.625 2.421-2.989 6.801-6.543 11.542-9.275 4.534-2.937 9.79-5.513 15.767-7.162C81.972.67 89.237-.463 95.78 0c6.338.412 12.984 2.679 18.343 5.205 5.256 2.525 10.101 6.441 13.346 9.583 3.092 2.885 4.688 5.616 5.359 7.987.619 2.215-.31 4.225-1.803 5.823-1.648 1.442-6.544 1.7-7.937 3.761-1.442 2.112.154 4.741-.978 8.45-1.289 3.504-3.763 7.729-7.008 12.676l-2.63 1.751z"/>
        <path fill="navy" stroke="#000" stroke-miterlimit="10" stroke-width=".036" d="M56.414 29.73q-1.7.387-3.71-.309c-1.391-.515-3.762-1.133-4.432-2.628-.618-1.442-1.029-3.709.67-6.13 1.752-2.474 5.411-5.618 9.584-8.297 4.226-2.679 10.099-5.822 15.457-7.677 5.359-1.804 11.182-2.937 16.388-3.246 5.255-.258 9.995.412 14.631 1.649 4.69 1.237 9.224 3.194 13.191 5.667 3.917 2.524 8.091 6.544 10.254 9.274 2.112 2.731 3.195 4.896 2.577 6.853-.62 1.906-2.73 3.452-6.34 4.688-4.327-3.503-9.326-6.028-15.25-7.78-5.979-1.751-13.037-2.783-20.198-2.628-7.111.207-16.695 1.134-22.259 3.607-5.51 2.424-7.312 4.02-10.559 6.957z"/>
        <path fill="#ff0" stroke="#000" stroke-miterlimit="10" stroke-width=".036" d="M123.4 29.73c-2.937-2.885-6.646-5.101-11.695-6.646-5.205-1.7-12.214-2.937-18.24-3.091-6.236-.258-12.728.412-17.674 1.442-4.74.876-8.399 2.113-11.388 3.917-3.246 1.596-5.977 3.555-7.986 5.874l1.803 3.246c3.041-2.885 7.523-5.049 13.655-6.492 6.08-1.649 15.921-2.473 22.568-2.473 6.44 0 11.49.772 16.127 2.112 4.535 1.185 8.091 2.988 10.872 5.204.257-.875.463-1.648.824-2.112.37-.567.69-.826 1.15-.981z"/>
        <path stroke="#000" stroke-miterlimit="10" stroke-width=".036" d="M79.497 7.626c.618 1.854.825 3.917.825 6.184-.311 2.163-1.804 4.895-1.288 7.008.567 2.112 2.575 3.812 4.843 5.513 2.062 1.545 4.74 2.73 7.832 3.762 4.638-2.062 7.472-4.432 8.915-7.317 1.339-3.092-.981-7.265-.824-9.944.05-2.577.566-4.483 1.338-5.514-2.421-1.288-4.484-1.907-6.183-1.648-1.803.102-2.731 2.678-4.381 2.782-1.853-.052-4.378-2.576-6.182-2.628-1.948-.207-3.444.463-4.887 1.802z"/>
        <path fill="#c2c200" stroke="#000" stroke-miterlimit="10" stroke-width=".036" d="M81.043 9.429c.516 1.701.67 3.247.67 5.256-.258 1.855-1.546 4.019-1.082 5.926.516 1.751 2.164 3.297 4.124 4.636 1.699 1.341 3.967 2.268 6.594 3.195q5.795-2.55 7.573-6.183c.928-2.576-.618-6.234-.669-8.399 0-2.112.361-3.864 1.082-4.688-2.061-1.134-3.659-1.598-5.205-1.391-1.441.154-2.421 2.267-3.71 2.369-1.698-.051-3.71-2.112-5.255-2.215-1.546-.051-2.988.258-4.122 1.494z"/>
        <path fill="#212121" stroke="#000" stroke-miterlimit="10" stroke-width=".036" d="M117.22 46.168c-1.339 2.627-3.402 3.915-6.183 5.821-3.301 1.855-7.988 4.02-11.852 4.895-3.762.722-11.388.825-10.563-.309.825-1.288 14.067-5.307 15.253-7.317.771-2.267-10.512-3.761-9.43-5.049 1.235-1.236 14.014-.927 16.281-2.267 2.01-1.546-5.514-5.255-4.071-6.182 1.339-1.134 10.615-1.186 12.521.463 1.69 1.649-.62 7.213-1.96 9.945z"/>
        <path fill="#b80000" d="M92.224 90.737c-1.235-.206-2.73.463-2.679.824 0 .309 1.958.721 2.885 1.237.825.411 1.133.979 2.317 1.288 1.083.207 2.682.207 3.97-.206 1.083-.773 2.525-2.628 2.936-3.349.257-.773-.154-1.186-1.028-.825-.878.309-2.938 2.061-4.227 2.473-1.592.103-2.984-1.442-4.169-1.442z"/>
        <path stroke="#000" stroke-miterlimit="10" stroke-width=".036" d="M88.36 91.768c-.104-.463 3.502-1.649 4.688-1.752 1.135.052 1.238 1.444 2.267 1.598.929-.154 1.959-1.34 3.299-1.752 1.132-.619 3.399-1.03 4.02-.669.36.413-.878 3.143-1.136 3.4-.206 0 .361-2.474-.464-2.422-1.234.052-4.326 2.422-5.719 2.731-1.339.154-1.235-1.495-2.267-1.597-1.182-.105-4.787.514-4.684.463zM74.447 104.7c0 2.37-.565 4.328-1.133 6.286a16.2 16.2 0 0 1-2.937 4.792c-6.491 2.577-12.057 4.585-16.9 6.595-4.998 1.649-8.244 2.525-12.108 4.638-3.967 2.112-7.265 4.431-10.872 8.347-3.761 3.761-7.678 9.996-10.563 14.323-2.833 4.226-4.123 7.935-6.028 11.13-2.01 3.144-4.071 4.689-6.184 7.625-2.524 2.834-6.543 6.338-7.471 9.121-.979 2.525.979 3.813 2.679 6.08 1.545 2.112 3.865 2.165 7.729 6.905 3.967 4.74 10.459 14.788 15.509 20.815 4.997 5.771 9.223 10.409 13.654 13.912 1.751 4.483 3.247 7.936 4.896 10.563 1.494 2.524 2.215 3.504 4.534 4.946 2.215 1.288 5.101 2.319 8.862 3.092-2.267 2.884-3.247 8.296-2.937 16.436.154 8.038 2.318 17.983 4.483 31.791 2.215 13.81 6.441 34.369 8.295 50.34 1.495 15.561 1.648 27.567 1.855 43.59.257 16.025 0 33.338-.567 52.352a14.5 14.5 0 0 0 3.246 2.988c1.133.671 2.01 1.133 3.193 1.392-1.339 1.648-2.316 4.792-2.936 9.223-.619 4.433-1.391 13.19-1.135 17.313-.103 3.915-.463 5.307 1.701 6.75 2.164 1.34 8.348 2.421 11.386 1.854 2.836-.722 4.948-3.041 6.338-5.771 1.082-2.732 1.135-6.028 1.546-10.872.465-4.999.722-11.284.979-18.858 1.342-.31 2.319-1.7 3.146-4.38.771-2.731 1.289-6.389 1.545-11.542-.053-5.307-1.6-7.935-1.442-19.837 0-12.16 1.132-39.83 2.01-52.195.668-12.521 2.268-20.815 2.781-21.538.361-.618-.567 8.397 0 17.726.465 9.12 2.165 28.544 3.093 37.201.722 8.501 1.131 6.802 1.854 13.963.721 7.111 1.341 16.385 2.267 28.442a24 24 0 0 0 4.484 2.937c1.441.772 2.938 1.186 4.483 1.443q-1.317 4.56-1.393 8.964c-.052 2.835.104 5.619.876 8.348 1.082.567 2.524 1.032 4.74 1.393 2.114.257 5.667.721 7.884.566 2.06-.258 3.451-1.03 4.38-2.112.258.978 1.65 2.009 4.378 3.092 2.681.927 7.729 2.833 11.542 2.937 3.71-.104 7.73-1.752 10.254-2.937q3.481-1.856 3.556-4.484c-.104-2.061-.463-5.667-3.658-7.212-3.399-1.496-8.502-2.165-15.921-1.805-.979-2.421-1.802-4.585-2.681-6.492-.876-1.906-1.596-3.555-2.367-4.946 1.235.411 1.854 0 1.646-1.235-.203-1.341-1.803-1.546-2.781-6.185-1.234-4.688-3.038-13.241-3.813-21.693-.875-8.5-1.235-16.694-.875-29.162.153-12.778 1.698-30.398 2.832-46.115 1.135-15.767 3.865-35.089 4.227-47.455.153-12.573-.876-21.28-3.092-26.896 2.267-1.494 4.02-3.143 5.255-5.564 1.031-2.524 1.442-5.668 2.011-8.605.411-2.988.206-5.462 1.545-8.605 1.443-3.35 4.688-6.028 6.749-10.407 1.906-4.535 3.194-10.254 4.638-15.768 1.342-5.72 2.475-13.14 3.401-17.313.825-4.07 1.493-5.049 1.39-7.316-.307-2.371-1.339-4.998-3.089-7.316l1.132-8.604c-1.132-1.598-3.298-4.689-6.491-9.069-3.401-4.638-8.708-12.881-12.935-17.57-4.276-4.792-6.647-6.853-12.263-10.151-5.72-3.297-12.882-6.286-21.689-9.171-.568-1.958-1.344-3.71-2.115-5.05q-1.315-2.242-2.937-3.4c-2.061 4.895-3.606 8.759-4.639 12.005-1.132 3.041-1.491 4.534-1.699 6.854-.31 2.267-.153 4.688.257 7.058q-2.007-3.323-3.245-4.637c-.929-.876-1.546-1.391-2.06-.979-.618-3.297-2.267-6.75-4.948-10.563-2.785-3.91-6.494-7.83-11.339-12.31zm-11.645 90.43q1.314-3.788 1.393-8.348c.051-3.143.258-6.698-1.393-10.253q-2.78-5.487-9.583-11.284c-3.247 2.473-5.875 5.411-8.296 8.605-2.474 3.247-4.379 6.75-5.925 10.717l-6.338-7.059c-.773.67-1.803 1.339-2.524 1.803-.773.413-1.804.825-2.525 1.03 2.577 3.401 4.586 6.957 6.441 10.099 1.803 3.04 3.04 6.029 4.122 9.172.876 3.194-.051 6.698 1.391 9.738 1.288 2.834 4.586 5.771 6.493 7.42 1.546 1.443 2.885 1.546 4.224 1.7 1.495 0 3.298-1.442 4.638-1.546 1.185-.309 1.855-.257 2.215.155-.051-1.907-.154-3.453-.103-4.638-.052-1.237-.516-2.422 0-2.989.412-.618 1.185-1.185 2.523-1.133.568-1.648.619-2.525.155-3.194q-.928-1.004-3.091-.464c-1.442.154-3.4.721-5.668 1.701q-1.7-3.555-1.237-7.729.387-4.328 2.938-9.275 2.241 0 4.792 1.545c1.752.98 3.402 2.32 5.358 4.23zm68.118-26.23c.979 2.37 2.421 4.483 4.121 6.904 1.804 2.422 4.07 5.05 6.185 6.905 2.01 1.597 3.605 2.473 5.358 2.833-1.339 3.71-2.475 7.78-3.403 12.779-.925 4.946-1.955 10.253-2.523 16.488-.824 1.03-1.7 2.009-2.831 2.936-1.239.825-2.527 1.649-4.073 2.268l-.412-4.38c1.393.619 2.579.773 3.351-.103.617-.773.979-1.237 1.288-4.792.308-3.967.825-13.345.721-17.621-.207-4.329-.566-6.647-1.698-7.729-1.343-1.082-3.196-.721-5.774 1.288.157-2.165.055-4.637.104-7.626-.16-2.93-.16-6.39-.42-10.15z"/>
        <path fill="#2ed5ff" stroke="#000" stroke-miterlimit="10" stroke-width=".036" d="M15.605 159.63c2.525 1.648 5.153 3.503 7.884 5.77 2.628 2.216 5.565 4.638 8.193 7.472 2.576 2.628 4.74 5.719 6.904 8.862 1.083-3.761 2.886-7.162 5.205-9.995 2.215-2.989 5.152-5.411 8.604-7.471-1.854-3.71-2.473-5.616-2.422-5.925.052-.361 1.804 3.4 3.092 4.122 1.082.567 3.606-.979 3.813-.464.103.31-.773 1.237-2.833 2.577 2.885 2.112 5.307 4.122 7.058 6.441 1.753 2.113 2.784 3.813 3.66 6.903.67 3.144.927 8.451.979 11.542-.104 3.04-.413 4.843-1.134 6.183l.876.567c.413-1.031 1.134-1.7 1.958-1.804.875-.412 2.421-1.03 3.246.722.67 1.854.618 5.204.413 10.253 1.494.722 4.379 1.546 8.45 2.268 4.069.567 11.85 1.751 16.179 1.958 4.224.154 7.266 0 9.325-.67l.105-4.637 2.523-.155c-.054-1.185-.514-3.504-.825-6.956-.567-3.607-1.441-9.738-1.804-14.015-.412-4.329-.359-7.369-.463-11.698-.207-4.533.257-9.48-.979-14.632-1.442-5.41-4.998-12.264-7.318-16.591-2.472-4.328-4.791-7.265-7.162-9.017l-2.268 2.782c-2.78-3.142-5.46-6.028-8.036-8.862-2.628-2.938-5.153-5.41-7.574-7.987-4.895 1.443-9.172 2.937-13.396 4.483-4.277 1.494-7.936 2.422-11.543 4.379q-5.333 2.628-9.583 6.338c.979.206 1.906 1.236 2.988 3.091q1.469 2.55 3.092 7.574l-7.472 7.317-14.375.876q-1.932 2.241-3.246 4.328c-.885 1.41-1.658 2.7-2.122 4.09z"/>
        <path fill="#2ed5ff" stroke="#000" stroke-miterlimit="10" stroke-width=".036" d="M91.091 131.08c1.29.721 2.318 2.009 3.656 3.658 1.135 1.444 2.167 3.556 3.66 6.338 1.393 2.73 4.174 7.316 5.359 10.408 1.031 2.886 1.496 4.432 1.802 7.626.153 3.297 0 6.956.153 11.386.157 4.123.415 7.936.982 13.654.514 5.771 1.339 12.16 2.267 20.147l3.399-.722c-.668-5.822-1.235-11.027-1.7-16.179-.72-5.153-1.135-9.944-1.441-14.376-.311-4.586.464-9.171.153-12.778-.411-3.813-.464-4.638-2.37-9.017-2.164-4.431-5.103-10.202-9.583-17.313l-1.547.103c-.514-.927-1.234-1.7-1.955-2.525-.878-.824-2.064-2.215-2.578-2.215-.567-.1-.512.56-.256 1.8zm-2.681-6.18c.878.515 1.442 1.648 1.135 2.833-.156 1.186-1.185 2.731-2.523 4.638-.518-1.34-2.218-3.298-4.536-6.08-2.37-2.834-5.925-6.287-10.098-10.563.927-1.083 1.441-2.577 1.957-3.917.411-1.39.618-3.194.618-4.843 4.38 4.689 7.626 8.554 9.945 11.594 2.318 2.94 3.298 5.05 3.502 6.34zm8.864 1.8c.979.464 1.75 1.237 2.525 2.112.667.877 1.288 2.011 1.853 3.402.361-2.834 1.032-5.205 1.804-7.884.824-2.627 1.752-5.101 2.988-7.626q-.388-2.705-1.391-4.637c-.67-1.289-1.752-2.319-2.833-3.092-1.7 3.968-3.04 7.368-3.813 10.408-.875 2.94-1.185 5.31-1.133 7.32z"/>
        <path fill="#2ed5ff" stroke="#000" stroke-miterlimit="10" stroke-width=".036" d="M107.42 117.43c6.906 2.421 12.625 4.791 17.569 7.316 4.791 2.525 7.833 3.813 11.697 7.626 3.708 3.555 6.954 9.222 10.717 14.221 3.761 4.946 7.419 10.15 11.543 15.611 0 2.525-.567 5.359-1.289 8.296-.875 3.041-2.164 7.111-3.659 9.43-1.699 1.958-3.349 3.503-5.77 3.246-2.628-.412-5.927-2.629-8.708-5.05-2.731-2.525-5.152-5.771-7.472-9.738.928-2.216 1.545-3.195 1.287-3.504-.206-.257-1.081 2.165-2.421 2.113-1.391-.155-5.564-3.04-5.771-2.68-.308.309.979 1.907 4.07 4.792-.051 1.855 0 4.688.157 8.708.05 3.864.257 8.915.409 14.942-1.027 2.319-2.474 4.586-3.916 6.595-1.646 1.958-3.295 3.865-5.358 5.514l-.822-3.092-5.515 1.237c-.618-5.359-1.289-10.306-1.804-15.046-.771-4.895-1.546-9.171-1.7-13.397-.153-4.379 1.187-8.192 1.236-11.645.054-3.503-.308-5.771-1.082-8.759-1.081-3.194-2.678-5.874-4.791-9.429-2.113-3.607-4.741-7.523-7.883-11.954l-.568-4.638c.515.669 1.289 1.598 2.113 2.783.771 1.185 1.597 2.422 2.679 4.123.414-3.247.878-6.236 1.803-9.172.81-2.93 1.89-5.81 3.23-8.44z"/>
        <path stroke="#000" stroke-miterlimit="10" stroke-width=".036" d="M98.511 137.21c.626 0 1.132.531 1.132 1.185 0 .655-.506 1.185-1.132 1.185-.627 0-1.135-.53-1.135-1.185 0-.66.508-1.19 1.135-1.19m5.149 9.285c.627 0 1.136.531 1.136 1.185s-.509 1.185-1.136 1.185-1.132-.531-1.132-1.185.51-1.19 1.13-1.19m3.442 11.685c.599 0 1.083.531 1.083 1.185s-.484 1.185-1.083 1.185c-.598 0-1.081-.53-1.081-1.185s.48-1.19 1.08-1.19m.171 12.365c.625 0 1.135.53 1.135 1.185s-.51 1.185-1.135 1.185c-.623 0-1.132-.53-1.132-1.185.01-.66.52-1.19 1.14-1.19m1.192 11.685c.626 0 1.135.53 1.135 1.185s-.509 1.185-1.135 1.185c-.624 0-1.132-.531-1.132-1.185s.52-1.19 1.14-1.19m3.942-45.305c.771 1.34 1.184 2.886 1.441 4.637.05 1.752-.928 3.813-.156 5.564.773 1.495 2.474 2.628 4.483 3.607 1.906.927 3.862 1.494 6.44 1.906 3.35-2.112 5.206-4.432 5.977-6.75.567-2.369-1.597-5.667-1.906-7.522-.308-1.958-.206-3.504.31-4.431q-3.014-1.083-4.948-.463c-1.338.463-1.749 2.215-3.037 2.679-1.393 0-3.608-1.34-5.052-1.237-1.43.1-2.61.77-3.54 2z"/>
        <path fill="#c2c200" stroke="#000" stroke-miterlimit="10" stroke-width=".036" d="M113.87 138.09c.514 1.133.979 2.524 1.185 3.967.154 1.391-.877 3.349-.103 4.689.514 1.288 2.164 2.163 3.759 3.04 1.546.67 3.299 1.34 5.463 1.597 2.731-1.855 4.483-3.761 5.049-5.719.463-2.216-1.389-4.586-1.597-6.338-.154-1.752-.257-2.937.257-3.761-1.803-.619-2.987-.67-4.173-.361-1.132.361-1.596 1.854-2.574 2.267-1.29 0-3.042-1.082-4.277-1.031-1.25.04-2.18.66-3 1.64zm-78.118-5.21q-2.782 1.16-6.183 5.41c-3.401 4.25-4.741 6.698-7.42 11.593l12.161-1.03 6.234-6.028c-.515-2.833-1.134-4.896-1.855-6.596-.876-1.74-1.855-2.72-2.937-3.34z"/>
        <path fill="#ffc080" stroke="#000" stroke-miterlimit="10" stroke-width=".036" d="M15.502 161.22c-.875 1.392-2.318 3.195-4.122 5.41-1.958 2.216-5.617 5.359-7.008 7.833-1.391 2.267-1.752 4.07-1.082 6.182.618 1.855 2.937 3.659 4.997 5.617 1.805 1.856 3.607 2.319 6.595 6.184 2.938 3.916 6.596 11.284 11.182 16.951q6.724 8.116 15.922 15.922c.463 3.143 1.494 5.513 2.885 7.884 1.237 2.061 2.627 3.709 5.359 5.358 2.679 1.546 7.986 3.71 10.975 4.535 2.73.669 5.718.413 6.182 0 .258-.464-1.442-1.958-3.502-2.887-2.217-1.133-8.812-3.297-8.863-3.503 0-.258 6.131 1.494 8.656 2.061 2.319.567 5.049 1.185 5.617 1.031.309-.361-.669-1.65-2.73-2.68-2.217-1.236-9.224-3.659-9.276-3.916.104-.258 6.905 1.7 9.481 2.267 2.266.412 4.123.618 4.586.412.361-.464 0-1.545-2.062-2.474-2.371-1.134-9.533-2.782-10.769-3.349-1.186-.67 1.906-.207 3.916 0 1.958.103 6.904 1.391 7.883 1.082.617-.464-1.031-2.112-3.349-3.144-2.371-1.133-5.668-2.37-10.305-3.504l.413-5.151c-1.65.566-3.246.979-4.792 1.03q-2.55.232-4.947-.619c-1.906-.721-3.761-1.494-5.565-3.709-2.009-2.576-4.276-6.956-5.41-10.357-1.133-3.504.103-6.028-1.443-10.151-1.752-4.276-4.431-9.171-8.45-15.097-1.546.979-2.988 1.392-4.534 1.443-1.803-.051-4.792-1.134-4.586-1.443.361-.515 3.967-.052 6.441-.825q3.4-1.235 7.419-3.71c-3.349-3.504-6.234-6.389-8.862-8.861-2.677-2.41-4.894-4.41-6.852-5.81zm133.138 23.81c-2.213 6.595-3.656 12.314-4.534 17.157-.771 4.845-.05 8.502-.617 11.542-.874 2.833-2.317 4.38-3.916 6.028-1.75 1.546-3.349 2.783-5.563 3.504v6.389c-1.082.877-2.217 2.165-3.557 3.967-1.288 1.752-4.172 5.618-4.329 6.595-.101.929 2.113-.051 3.506-1.03 1.392-1.031 4.12-4.638 4.791-4.947.567-.309-.464 1.907-1.132 3.04-.621 1.134-1.703 2.423-2.732 3.658-.98 1.185-2.987 2.834-3.194 3.607s1.133 1.287 2.011.979c.874-.309 2.06-1.339 3.295-2.782 1.185-1.496 3.195-5.153 3.969-6.081.772-.927 1.134-.721.669.464-.515 1.185-2.164 4.585-3.453 6.492-1.286 1.854-3.916 3.709-4.276 4.793-.308 1.082 1.031 2.215 2.32 1.545 1.338-.772 4.328-3.607 5.616-5.822 1.235-2.164 1.596-6.595 1.956-7.266.414-.619.672 2.01.311 3.556-.36 1.546-1.339 3.967-2.42 5.667-1.083 1.7-3.71 3.194-3.453 3.606 0 0 .154 2.062 1.597 1.598 1.393-.464 2.01-.773 3.505-2.164 1.443-1.393 2.679-2.783 3.607-6.028.874-3.297.72-10.512 1.698-13.861.979-3.297 2.218-4.174 3.503-6.595 1.342-2.421 2.938-4.173 4.38-7.625 1.392-3.556 2.782-8.657 3.917-13.243 1.081-4.585 1.853-10.459 2.679-14.066.824-3.606 2.01-5.1 2.063-7.471.05-2.319-.567-4.534-1.856-6.595-1.032 4.328-2.474 7.368-4.121 9.326-1.83 1.89-3.84 2.5-6.27 2.04z"/>
        <path fill="#a16121" stroke="#000" stroke-miterlimit="10" stroke-width=".036" d="M54.199 191.11c-1.133.566-2.01 2.01-2.422 4.328-.464 2.216-.67 5.307-.412 9.274 3.143-1.288 5.565-1.855 7.264-1.907 1.546-.154 2.165.413 2.68 1.495.464 1.03.619 2.473.258 4.534h7.677c.412-2.68.824-4.999.824-6.957 0-2.009 0-4.328-.566-4.946-.773-.721-1.7-.464-3.349.773q-4.02-2.242-6.956-3.865c-2.062-1.06-3.659-2.04-4.998-2.71z"/>
        <path fill="#616161" stroke="#000" stroke-miterlimit="10" stroke-width=".036" d="M70.326 210.07c-2.371-.104-4.123-.155-6.028-.155-1.958-.103-3.968-.567-4.844 0-.875.31-.36.876-.412 3.091-.258 2.319-.413 5.616-.67 10.46 1.7.36 3.297.618 5.358 1.339q2.86.85 6.338 2.318c1.032-3.246 1.495-6.183 1.598-9.017.052-2.89-.464-5.57-1.34-8.04zm61.624-20.82c1.082-2.062 2.063-2.731 2.938-2.577.876.103 1.546 1.133 2.011 3.916.104 2.885-.054 8.553-.259 12.625-.31 3.657-.464 8.708-1.081 10.202-.877 1.339-2.321.772-2.938-1.495-.671-2.421-.671-8.347-.824-11.646-.257-3.297-.36-5.667-.514-7.522l.66-3.5zm-25.25 16.49c-.26.722-.361 2.783-.518 6.184-.153 3.349-.361 7.986-.41 14.118 1.853-.051 3.759-.361 6.286-.928 2.368-.566 5.1-1.7 8.19-2.833.258-3.298.157-6.287-.104-9.532-.256-3.298-.874-6.286-1.646-9.532-1.807.669-3.61 1.133-5.619 1.596-2 .36-4.07.66-6.18.92z"/>
        <path fill="navy" stroke="#000" stroke-miterlimit="10" stroke-width=".036" d="M72.85 219.4c2.525 1.133 6.134 1.906 11.44 2.525 5.099.566 11.697.773 19.58.825-.515 1.854-.672 3.194-.258 4.019.258.566.618.979 2.267.824q2.319-.155 7.266-1.082c.052 1.185-.053 4.482-.517 9.687-.565 5.255-2.164 19.375-2.01 21.486.104 1.649 1.752-4.74 2.784-10.202.823-5.461 1.749-12.778 2.574-22.156 2.167-.258 3.813-.772 4.948-1.339.978-.67 1.392-1.804 1.649-2.422.203-.772.153-1.288-.157-1.752.26-.36 1.135-1.082 2.424-2.164 1.286-1.185 3.192-2.525 5.513-4.432l1.596 1.752.157 13.551c-1.343 1.803-2.527 3.71-3.763 5.513-1.236 1.804-3.452 3.761-3.659 5.254-.308 1.341.207 2.32 1.753 2.938q-1.547 1.854-1.082 3.092c.153.721 1.031 1.441 2.42 1.751q.002 2.938 1.238 3.864c.723.618 2.061.517 3.606-.103q.077 1.313 1.235 1.854c.618.31 1.601.207 2.938-.103l-.824-.464c1.135 2.524 1.7 5.564 2.267 9.687.36 3.916.568 7.729.411 14.222-.102 6.441-.565 15.045-1.182 24.011-.982 8.862-2.268 18.395-3.248 29.009-.98 10.407-1.752 24.217-2.111 33.903-.415 9.532-.621 16.746-.415 24.011.104 7.266.619 13.708 1.34 19.527.621 5.721 1.702 11.027 2.681 14.737.771 3.607 2.524 5.256 2.678 6.75 0 1.288-.464.618-2.162 1.187-1.854.41-5.823.874-8.555 1.595-2.988.568-7.108 2.269-8.191 2.32-1.134-.205 1.34-1.804 2.267-2.576.929-.876 3.761-2.011 3.35-2.011-.617-.052-5.668 1.443-6.594 1.494-.981-.257 2.007-1.854.822-2.009-1.236-.206-4.071.206-8.294 1.031-.618-2.783-.929-6.544-1.497-11.284-.514-4.793-.875-10.563-1.492-17.313-.874-7.059-2.321-15.458-2.938-23.598-.771-8.194-.929-17.364-1.081-24.733-.362-7.42-.516-12.572-.258-19.425.31-7.059 1.545-14.788 1.752-22.002-.207-7.419-1.185-20.197-1.752-21.073-.515-.721-.361 9.48-.929 16.487a2580 2580 0 0 1-3.092 24.424c-.978 7.266-1.906 7.059-2.574 19.065-.979 11.9-1.6 40.396-1.856 52.092-.257 11.49-.104 12.004.257 16.437.207 4.122.722 5.926.774 9.017-.103 3.092-.774 8.09-1.6 9.636-.978 1.443-3.967-1.804-4.016-1.185-.258.514 3.091 2.782 3.091 4.019-.156.979-1.545 1.7-3.349 2.162-1.906.362-4.483.773-7.524.26-3.091-.671-6.646-2.01-10.872-4.021.104-9.172.207-18.188.104-27.669-.153-9.633-.309-18.29-.67-28.751-.411-10.615-.567-20.404-1.854-33.543-1.597-13.19-4.792-33.027-6.595-44.827-1.752-11.852-3.091-19.065-4.019-26.228-1.082-7.418-2.422-12.674-2.422-17.362-.206-4.844.824-7.936 1.494-10.46.567-2.576 1.237-3.916 2.01-4.432 2.731.311 4.946.207 6.441-.103 1.339-.619 2.369-1.545 2.523-2.165.104-.618-.102-1.031-1.184-1.236 1.391.05 2.216-.259 2.679-.928.36-.669.154-1.7-.413-3.092 2.113-.154 3.04-.463 3.349-1.339.053-.773-.514-2.112-2.266-3.607.927-.258 1.494-.927 1.494-1.598-.104-.721-.567-1.855-1.598-2.988.67-.773 1.082-1.598 1.443-2.68.206-1.082.36-2.369.256-3.865v-1.7z"/>
        <path stroke="#000" stroke-miterlimit="10" stroke-width=".036" d="M81.868 275.61c-.876-.053-8.966 1.236-11.542 2.68-2.577 1.286-3.967 4.069-3.967 5.358-.104 1.134 3.195-.155 3.762 1.907.463 2.008-1.34 7.624-.825 9.892.464 2.009 2.627.052 3.504 2.679.669 2.422.875 13.192 1.236 12.625.309-.722.773-12.986.618-15.923-.36-2.987-2.37.309-2.68-1.441-.412-1.959.516-7.781.207-9.738-.463-2.113-3.144-1.753-2.679-2.475.361-.876 2.731-1.7 4.946-2.472 2.062-1.09 7.988-3.05 7.42-3.1zm40.142-17.98c.825.722 8.966 7.162 10.718 11.595 1.546 4.378-.721 10.768-.824 14.427-.208 3.35.928 6.75.411 6.233-.668-.721-3.297-6.544-3.503-9.532-.154-2.884 2.523-5.564 2.475-8.038-.414-2.679-2.524-5.513-4.124-7.883-1.67-2.47-6.1-7.73-5.17-6.8zm7.83 84.96c.307.979-.361 8.863-.414 15.305-.207 6.182.256 20.248 0 22.311-.258 1.958-1.339-5.979-1.65-10.514-.514-4.791-1.184-12.829-.823-17.363.46-4.7 2.21-10.72 2.88-9.75zm-57.04 6.65c-.259 2.423-.052 26.794.411 29.576.412 2.474 1.752-9.171 1.855-14.065-.155-4.96-1.906-17.94-2.266-15.52z"/>
        <path fill="#212121" stroke="#000" stroke-miterlimit="10" stroke-width=".036" d="M119.94 434.88c.465-.361 1.907-.773 4.739-1.442 2.681-.721 6.543-1.494 11.595-2.524 1.442 3.349 2.678 6.184 3.914 8.295 1.238 2.112 2.268 3.556 3.299 4.329 5.873-.311 10.099.102 13.241 1.235 3.093 1.134 5.41 3.865 4.948 5.616-.824 1.496-5.102 3.452-8.864 3.916-3.966.412-10.975-.257-13.86-1.237-2.884-1.183-3.916-2.987-3.298-5.615-1.339 1.65-3.142 2.628-5.819 3.143-2.629.465-5.928.465-9.895-.206-1.287-2.884-1.906-5.513-1.855-8.089-.04-2.74.58-5 1.86-7.42zm-41.783 8.86c-1.647 3.349-2.679 7.419-3.503 12.417-.927 5.051-2.937 14.274-1.237 17.364 1.598 2.835 8.76 1.186 11.338.207 2.471-.979 2.73-1.442 3.759-6.39.979-5.255 1.803-12.933 2.267-24.011-3.708.979-6.335 1.598-8.501 1.648-2.113 0-3.555-.42-4.123-1.24z"/>
        <path stroke="#000" stroke-miterlimit="10" stroke-width=".036" d="M62.133 144.53c1.906-.567 4.38-1.083 7.626-1.546 3.247-.619 7.007-.927 11.696-1.494l1.803 4.534c-4.378.309-8.191.515-11.437 1.03-3.35.413-5.926.927-8.142 1.546-.515-1.34-1.03-2.68-1.546-4.07z"/>
      </g>
    </g>
  </switch>
</svg>
